<?xml version="1.0" encoding="UTF-8" standalone="no"?>
<!DOCTYPE svg PUBLIC "-//W3C//DTD SVG 1.1//EN"
 "http://www.w3.org/Graphics/SVG/1.1/DTD/svg11.dtd">
<!-- Generated by graphviz version 2.43.0 (0)
 -->
<!-- Title: snakemake_dag Pages: 1 -->
<svg width="4450pt" height="620pt"
 viewBox="0.00 0.00 4449.50 620.00" xmlns="http://www.w3.org/2000/svg" xmlns:xlink="http://www.w3.org/1999/xlink">
<g id="graph0" class="graph" transform="scale(1 1) rotate(0) translate(4 616)">
<title>snakemake_dag</title>
<polygon fill="white" stroke="transparent" points="-4,4 -4,-616 4445.5,-616 4445.5,4 -4,4"/>
<!-- 0 -->
<g id="node1" class="node">
<title>0</title>
<path fill="none" stroke="#bed856" stroke-width="2" stroke-dasharray="5,2" d="M2242.5,-36C2242.5,-36 2212.5,-36 2212.5,-36 2206.5,-36 2200.5,-30 2200.5,-24 2200.5,-24 2200.5,-12 2200.5,-12 2200.5,-6 2206.5,0 2212.5,0 2212.5,0 2242.5,0 2242.5,0 2248.5,0 2254.5,-6 2254.5,-12 2254.5,-12 2254.5,-24 2254.5,-24 2254.5,-30 2248.5,-36 2242.5,-36"/>
<text text-anchor="middle" x="2227.5" y="-15.5" font-family="sans" font-size="10.00">all</text>
</g>
<!-- 1 -->
<g id="node2" class="node">
<title>1</title>
<path fill="none" stroke="#56d8c1" stroke-width="2" stroke-dasharray="5,2" d="M346,-108C346,-108 233,-108 233,-108 227,-108 221,-102 221,-96 221,-96 221,-84 221,-84 221,-78 227,-72 233,-72 233,-72 346,-72 346,-72 352,-72 358,-78 358,-84 358,-84 358,-96 358,-96 358,-102 352,-108 346,-108"/>
<text text-anchor="middle" x="289.5" y="-87.5" font-family="sans" font-size="10.00">reconcile_all_gene_trees</text>
</g>
<!-- 1&#45;&gt;0 -->
<g id="edge1" class="edge">
<title>1&#45;&gt;0</title>
<path fill="none" stroke="grey" stroke-width="2" d="M358.33,-85.56C432.25,-81.94 553.17,-76.17 657.5,-72 1269.41,-47.54 2015.78,-25.21 2189.94,-20.1"/>
<polygon fill="grey" stroke="grey" stroke-width="2" points="2190.23,-23.59 2200.12,-19.8 2190.02,-16.59 2190.23,-23.59"/>
</g>
<!-- 2 -->
<g id="node3" class="node">
<title>2</title>
<path fill="none" stroke="#d88d56" stroke-width="2" stroke-dasharray="5,2" d="M199,-324C199,-324 12,-324 12,-324 6,-324 0,-318 0,-312 0,-312 0,-300 0,-300 0,-294 6,-288 12,-288 12,-288 199,-288 199,-288 205,-288 211,-294 211,-300 211,-300 211,-312 211,-312 211,-318 205,-324 199,-324"/>
<text text-anchor="middle" x="105.5" y="-303.5" font-family="sans" font-size="10.00">prepare_species_tree_for_reconciliation</text>
</g>
<!-- 2&#45;&gt;1 -->
<g id="edge11" class="edge">
<title>2&#45;&gt;1</title>
<path fill="none" stroke="grey" stroke-width="2" d="M112.2,-287.88C125.24,-256.28 156.64,-188.04 200.5,-144 212.59,-131.87 228,-121.42 242.59,-113.1"/>
<polygon fill="grey" stroke="grey" stroke-width="2" points="244.44,-116.07 251.53,-108.19 241.08,-109.93 244.44,-116.07"/>
</g>
<!-- 9 -->
<g id="node10" class="node">
<title>9</title>
<path fill="none" stroke="#568ad8" stroke-width="2" stroke-dasharray="5,2" d="M288,-252C288,-252 197,-252 197,-252 191,-252 185,-246 185,-240 185,-240 185,-228 185,-228 185,-222 191,-216 197,-216 197,-216 288,-216 288,-216 294,-216 300,-222 300,-228 300,-228 300,-240 300,-240 300,-246 294,-252 288,-252"/>
<text text-anchor="middle" x="242.5" y="-231.5" font-family="sans" font-size="10.00">reconcile_gene_tree</text>
</g>
<!-- 2&#45;&gt;9 -->
<g id="edge23" class="edge">
<title>2&#45;&gt;9</title>
<path fill="none" stroke="grey" stroke-width="2" d="M139.01,-287.88C157.34,-278.51 180.24,-266.81 199.83,-256.8"/>
<polygon fill="grey" stroke="grey" stroke-width="2" points="201.54,-259.86 208.86,-252.19 198.36,-253.62 201.54,-259.86"/>
</g>
<!-- 3 -->
<g id="node4" class="node">
<title>3</title>
<path fill="none" stroke="#d85656" stroke-width="2" stroke-dasharray="5,2" d="M250.5,-396C250.5,-396 182.5,-396 182.5,-396 176.5,-396 170.5,-390 170.5,-384 170.5,-384 170.5,-372 170.5,-372 170.5,-366 176.5,-360 182.5,-360 182.5,-360 250.5,-360 250.5,-360 256.5,-360 262.5,-366 262.5,-372 262.5,-372 262.5,-384 262.5,-384 262.5,-390 256.5,-396 250.5,-396"/>
<text text-anchor="middle" x="216.5" y="-375.5" font-family="sans" font-size="10.00">sampling_trees</text>
</g>
<!-- 3&#45;&gt;2 -->
<g id="edge14" class="edge">
<title>3&#45;&gt;2</title>
<path fill="none" stroke="grey" stroke-width="2" d="M189.35,-359.88C174.97,-350.81 157.12,-339.55 141.59,-329.76"/>
<polygon fill="grey" stroke="grey" stroke-width="2" points="143.08,-326.56 132.76,-324.19 139.35,-332.48 143.08,-326.56"/>
</g>
<!-- 7 -->
<g id="node8" class="node">
<title>7</title>
<path fill="none" stroke="#88d856" stroke-width="2" stroke-dasharray="5,2" d="M415.5,-324C415.5,-324 241.5,-324 241.5,-324 235.5,-324 229.5,-318 229.5,-312 229.5,-312 229.5,-300 229.5,-300 229.5,-294 235.5,-288 241.5,-288 241.5,-288 415.5,-288 415.5,-288 421.5,-288 427.5,-294 427.5,-300 427.5,-300 427.5,-312 427.5,-312 427.5,-318 421.5,-324 415.5,-324"/>
<text text-anchor="middle" x="328.5" y="-303.5" font-family="sans" font-size="10.00">prepare_gene_tree_for_reconciliation</text>
</g>
<!-- 3&#45;&gt;7 -->
<g id="edge20" class="edge">
<title>3&#45;&gt;7</title>
<path fill="none" stroke="grey" stroke-width="2" d="M243.9,-359.88C258.41,-350.81 276.42,-339.55 292.09,-329.76"/>
<polygon fill="grey" stroke="grey" stroke-width="2" points="294.37,-332.46 301,-324.19 290.66,-326.52 294.37,-332.46"/>
</g>
<!-- 4 -->
<g id="node5" class="node">
<title>4</title>
<path fill="none" stroke="#59d856" stroke-width="2" stroke-dasharray="5,2" d="M264,-612C264,-612 161,-612 161,-612 155,-612 149,-606 149,-600 149,-600 149,-588 149,-588 149,-582 155,-576 161,-576 161,-576 264,-576 264,-576 270,-576 276,-582 276,-588 276,-588 276,-600 276,-600 276,-606 270,-612 264,-612"/>
<text text-anchor="middle" x="212.5" y="-597" font-family="sans" font-size="10.00">generate_species_tree</text>
<text text-anchor="middle" x="212.5" y="-586" font-family="sans" font-size="10.00">sp_tree_index: 0</text>
</g>
<!-- 4&#45;&gt;3 -->
<g id="edge15" class="edge">
<title>4&#45;&gt;3</title>
<path fill="none" stroke="grey" stroke-width="2" d="M206.91,-575.92C198.03,-546.35 182.74,-483.81 193.5,-432 195.38,-422.96 198.87,-413.58 202.59,-405.26"/>
<polygon fill="grey" stroke="grey" stroke-width="2" points="205.82,-406.61 206.96,-396.07 199.5,-403.6 205.82,-406.61"/>
</g>
<!-- 5 -->
<g id="node6" class="node">
<title>5</title>
<path fill="none" stroke="#d8bc56" stroke-width="2" stroke-dasharray="5,2" d="M304.5,-468C304.5,-468 214.5,-468 214.5,-468 208.5,-468 202.5,-462 202.5,-456 202.5,-456 202.5,-444 202.5,-444 202.5,-438 208.5,-432 214.5,-432 214.5,-432 304.5,-432 304.5,-432 310.5,-432 316.5,-438 316.5,-444 316.5,-444 316.5,-456 316.5,-456 316.5,-462 310.5,-468 304.5,-468"/>
<text text-anchor="middle" x="259.5" y="-447.5" font-family="sans" font-size="10.00">generate_gene_tree</text>
</g>
<!-- 4&#45;&gt;5 -->
<g id="edge17" class="edge">
<title>4&#45;&gt;5</title>
<path fill="none" stroke="grey" stroke-width="2" d="M214.72,-575.88C217.41,-557.67 222.71,-528.21 231.5,-504 234.8,-494.9 239.4,-485.42 243.92,-477.03"/>
<polygon fill="grey" stroke="grey" stroke-width="2" points="247.08,-478.55 248.91,-468.11 240.97,-475.13 247.08,-478.55"/>
</g>
<!-- 6 -->
<g id="node7" class="node">
<title>6</title>
<path fill="none" stroke="#56c1d8" stroke-width="2" stroke-dasharray="5,2" d="M344.5,-540C344.5,-540 252.5,-540 252.5,-540 246.5,-540 240.5,-534 240.5,-528 240.5,-528 240.5,-516 240.5,-516 240.5,-510 246.5,-504 252.5,-504 252.5,-504 344.5,-504 344.5,-504 350.5,-504 356.5,-510 356.5,-516 356.5,-516 356.5,-528 356.5,-528 356.5,-534 350.5,-540 344.5,-540"/>
<text text-anchor="middle" x="298.5" y="-519.5" font-family="sans" font-size="10.00">create_transfers_file</text>
</g>
<!-- 4&#45;&gt;6 -->
<g id="edge19" class="edge">
<title>4&#45;&gt;6</title>
<path fill="none" stroke="grey" stroke-width="2" d="M233.76,-575.7C244.59,-566.88 257.92,-556.03 269.66,-546.47"/>
<polygon fill="grey" stroke="grey" stroke-width="2" points="271.94,-549.13 277.49,-540.1 267.52,-543.7 271.94,-549.13"/>
</g>
<!-- 5&#45;&gt;3 -->
<g id="edge16" class="edge">
<title>5&#45;&gt;3</title>
<path fill="none" stroke="grey" stroke-width="2" d="M248.87,-431.7C243.87,-423.56 237.81,-413.69 232.29,-404.7"/>
<polygon fill="grey" stroke="grey" stroke-width="2" points="235.22,-402.79 227.01,-396.1 229.26,-406.46 235.22,-402.79"/>
</g>
<!-- 6&#45;&gt;5 -->
<g id="edge18" class="edge">
<title>6&#45;&gt;5</title>
<path fill="none" stroke="grey" stroke-width="2" d="M288.86,-503.7C284.37,-495.64 278.94,-485.89 273.98,-476.98"/>
<polygon fill="grey" stroke="grey" stroke-width="2" points="276.95,-475.14 269.03,-468.1 270.84,-478.54 276.95,-475.14"/>
</g>
<!-- 7&#45;&gt;1 -->
<g id="edge12" class="edge">
<title>7&#45;&gt;1</title>
<path fill="none" stroke="grey" stroke-width="2" d="M325.41,-287.6C320.17,-258.06 309.13,-196.23 299.5,-144 297.95,-135.58 296.23,-126.42 294.66,-118.12"/>
<polygon fill="grey" stroke="grey" stroke-width="2" points="298.08,-117.35 292.78,-108.18 291.2,-118.66 298.08,-117.35"/>
</g>
<!-- 7&#45;&gt;9 -->
<g id="edge22" class="edge">
<title>7&#45;&gt;9</title>
<path fill="none" stroke="grey" stroke-width="2" d="M307.24,-287.7C296.41,-278.88 283.08,-268.03 271.34,-258.47"/>
<polygon fill="grey" stroke="grey" stroke-width="2" points="273.48,-255.7 263.51,-252.1 269.06,-261.13 273.48,-255.7"/>
</g>
<!-- 8 -->
<g id="node9" class="node">
<title>8</title>
<path fill="none" stroke="#56d88a" stroke-width="2" stroke-dasharray="5,2" d="M279,-180C279,-180 222,-180 222,-180 216,-180 210,-174 210,-168 210,-168 210,-156 210,-156 210,-150 216,-144 222,-144 222,-144 279,-144 279,-144 285,-144 291,-150 291,-156 291,-156 291,-168 291,-168 291,-174 285,-180 279,-180"/>
<text text-anchor="middle" x="250.5" y="-159.5" font-family="sans" font-size="10.00">extract_rates</text>
</g>
<!-- 8&#45;&gt;1 -->
<g id="edge13" class="edge">
<title>8&#45;&gt;1</title>
<path fill="none" stroke="grey" stroke-width="2" d="M260.14,-143.7C264.63,-135.64 270.06,-125.89 275.02,-116.98"/>
<polygon fill="grey" stroke="grey" stroke-width="2" points="278.16,-118.54 279.97,-108.1 272.05,-115.14 278.16,-118.54"/>
</g>
<!-- 9&#45;&gt;8 -->
<g id="edge21" class="edge">
<title>9&#45;&gt;8</title>
<path fill="none" stroke="grey" stroke-width="2" d="M244.48,-215.7C245.36,-207.98 246.42,-198.71 247.4,-190.11"/>
<polygon fill="grey" stroke="grey" stroke-width="2" points="250.89,-190.44 248.55,-180.1 243.93,-189.64 250.89,-190.44"/>
</g>
<!-- 10 -->
<g id="node11" class="node">
<title>10</title>
<path fill="none" stroke="#56d8c1" stroke-width="2" stroke-dasharray="5,2" d="M792,-108C792,-108 679,-108 679,-108 673,-108 667,-102 667,-96 667,-96 667,-84 667,-84 667,-78 673,-72 679,-72 679,-72 792,-72 792,-72 798,-72 804,-78 804,-84 804,-84 804,-96 804,-96 804,-102 798,-108 792,-108"/>
<text text-anchor="middle" x="735.5" y="-87.5" font-family="sans" font-size="10.00">reconcile_all_gene_trees</text>
</g>
<!-- 10&#45;&gt;0 -->
<g id="edge2" class="edge">
<title>10&#45;&gt;0</title>
<path fill="none" stroke="grey" stroke-width="2" d="M804.47,-85.76C1066.15,-73.49 1992.83,-30.01 2190.31,-20.74"/>
<polygon fill="grey" stroke="grey" stroke-width="2" points="2190.64,-24.23 2200.46,-20.27 2190.31,-17.24 2190.64,-24.23"/>
</g>
<!-- 11 -->
<g id="node12" class="node">
<title>11</title>
<path fill="none" stroke="#d88d56" stroke-width="2" stroke-dasharray="5,2" d="M645,-324C645,-324 458,-324 458,-324 452,-324 446,-318 446,-312 446,-312 446,-300 446,-300 446,-294 452,-288 458,-288 458,-288 645,-288 645,-288 651,-288 657,-294 657,-300 657,-300 657,-312 657,-312 657,-318 651,-324 645,-324"/>
<text text-anchor="middle" x="551.5" y="-303.5" font-family="sans" font-size="10.00">prepare_species_tree_for_reconciliation</text>
</g>
<!-- 11&#45;&gt;10 -->
<g id="edge24" class="edge">
<title>11&#45;&gt;10</title>
<path fill="none" stroke="grey" stroke-width="2" d="M558.2,-287.88C571.24,-256.28 602.64,-188.04 646.5,-144 658.59,-131.87 674,-121.42 688.59,-113.1"/>
<polygon fill="grey" stroke="grey" stroke-width="2" points="690.44,-116.07 697.53,-108.19 687.08,-109.93 690.44,-116.07"/>
</g>
<!-- 18 -->
<g id="node19" class="node">
<title>18</title>
<path fill="none" stroke="#568ad8" stroke-width="2" stroke-dasharray="5,2" d="M734,-252C734,-252 643,-252 643,-252 637,-252 631,-246 631,-240 631,-240 631,-228 631,-228 631,-222 637,-216 643,-216 643,-216 734,-216 734,-216 740,-216 746,-222 746,-228 746,-228 746,-240 746,-240 746,-246 740,-252 734,-252"/>
<text text-anchor="middle" x="688.5" y="-231.5" font-family="sans" font-size="10.00">reconcile_gene_tree</text>
</g>
<!-- 11&#45;&gt;18 -->
<g id="edge36" class="edge">
<title>11&#45;&gt;18</title>
<path fill="none" stroke="grey" stroke-width="2" d="M585.01,-287.88C603.34,-278.51 626.24,-266.81 645.83,-256.8"/>
<polygon fill="grey" stroke="grey" stroke-width="2" points="647.54,-259.86 654.86,-252.19 644.36,-253.62 647.54,-259.86"/>
</g>
<!-- 12 -->
<g id="node13" class="node">
<title>12</title>
<path fill="none" stroke="#d85656" stroke-width="2" stroke-dasharray="5,2" d="M769.5,-396C769.5,-396 701.5,-396 701.5,-396 695.5,-396 689.5,-390 689.5,-384 689.5,-384 689.5,-372 689.5,-372 689.5,-366 695.5,-360 701.5,-360 701.5,-360 769.5,-360 769.5,-360 775.5,-360 781.5,-366 781.5,-372 781.5,-372 781.5,-384 781.5,-384 781.5,-390 775.5,-396 769.5,-396"/>
<text text-anchor="middle" x="735.5" y="-375.5" font-family="sans" font-size="10.00">sampling_trees</text>
</g>
<!-- 12&#45;&gt;11 -->
<g id="edge27" class="edge">
<title>12&#45;&gt;11</title>
<path fill="none" stroke="grey" stroke-width="2" d="M690.49,-359.88C665,-350.18 632.93,-337.98 606.02,-327.74"/>
<polygon fill="grey" stroke="grey" stroke-width="2" points="606.96,-324.35 596.37,-324.07 604.47,-330.9 606.96,-324.35"/>
</g>
<!-- 16 -->
<g id="node17" class="node">
<title>16</title>
<path fill="none" stroke="#88d856" stroke-width="2" stroke-dasharray="5,2" d="M861.5,-324C861.5,-324 687.5,-324 687.5,-324 681.5,-324 675.5,-318 675.5,-312 675.5,-312 675.5,-300 675.5,-300 675.5,-294 681.5,-288 687.5,-288 687.5,-288 861.5,-288 861.5,-288 867.5,-288 873.5,-294 873.5,-300 873.5,-300 873.5,-312 873.5,-312 873.5,-318 867.5,-324 861.5,-324"/>
<text text-anchor="middle" x="774.5" y="-303.5" font-family="sans" font-size="10.00">prepare_gene_tree_for_reconciliation</text>
</g>
<!-- 12&#45;&gt;16 -->
<g id="edge33" class="edge">
<title>12&#45;&gt;16</title>
<path fill="none" stroke="grey" stroke-width="2" d="M745.14,-359.7C749.63,-351.64 755.06,-341.89 760.02,-332.98"/>
<polygon fill="grey" stroke="grey" stroke-width="2" points="763.16,-334.54 764.97,-324.1 757.05,-331.14 763.16,-334.54"/>
</g>
<!-- 13 -->
<g id="node14" class="node">
<title>13</title>
<path fill="none" stroke="#59d856" stroke-width="2" stroke-dasharray="5,2" d="M806,-612C806,-612 703,-612 703,-612 697,-612 691,-606 691,-600 691,-600 691,-588 691,-588 691,-582 697,-576 703,-576 703,-576 806,-576 806,-576 812,-576 818,-582 818,-588 818,-588 818,-600 818,-600 818,-606 812,-612 806,-612"/>
<text text-anchor="middle" x="754.5" y="-597" font-family="sans" font-size="10.00">generate_species_tree</text>
<text text-anchor="middle" x="754.5" y="-586" font-family="sans" font-size="10.00">sp_tree_index: 1</text>
</g>
<!-- 13&#45;&gt;12 -->
<g id="edge28" class="edge">
<title>13&#45;&gt;12</title>
<path fill="none" stroke="grey" stroke-width="2" d="M751.02,-575.7C746.39,-551.67 738.43,-506.74 735.5,-468 733.94,-447.33 734.01,-423.88 734.44,-406.24"/>
<polygon fill="grey" stroke="grey" stroke-width="2" points="737.94,-406.19 734.74,-396.09 730.94,-405.98 737.94,-406.19"/>
</g>
<!-- 14 -->
<g id="node15" class="node">
<title>14</title>
<path fill="none" stroke="#d8bc56" stroke-width="2" stroke-dasharray="5,2" d="M846.5,-468C846.5,-468 756.5,-468 756.5,-468 750.5,-468 744.5,-462 744.5,-456 744.5,-456 744.5,-444 744.5,-444 744.5,-438 750.5,-432 756.5,-432 756.5,-432 846.5,-432 846.5,-432 852.5,-432 858.5,-438 858.5,-444 858.5,-444 858.5,-456 858.5,-456 858.5,-462 852.5,-468 846.5,-468"/>
<text text-anchor="middle" x="801.5" y="-447.5" font-family="sans" font-size="10.00">generate_gene_tree</text>
</g>
<!-- 13&#45;&gt;14 -->
<g id="edge30" class="edge">
<title>13&#45;&gt;14</title>
<path fill="none" stroke="grey" stroke-width="2" d="M756.72,-575.88C759.41,-557.67 764.71,-528.21 773.5,-504 776.8,-494.9 781.4,-485.42 785.92,-477.03"/>
<polygon fill="grey" stroke="grey" stroke-width="2" points="789.08,-478.55 790.91,-468.11 782.97,-475.13 789.08,-478.55"/>
</g>
<!-- 15 -->
<g id="node16" class="node">
<title>15</title>
<path fill="none" stroke="#56c1d8" stroke-width="2" stroke-dasharray="5,2" d="M886.5,-540C886.5,-540 794.5,-540 794.5,-540 788.5,-540 782.5,-534 782.5,-528 782.5,-528 782.5,-516 782.5,-516 782.5,-510 788.5,-504 794.5,-504 794.5,-504 886.5,-504 886.5,-504 892.5,-504 898.5,-510 898.5,-516 898.5,-516 898.5,-528 898.5,-528 898.5,-534 892.5,-540 886.5,-540"/>
<text text-anchor="middle" x="840.5" y="-519.5" font-family="sans" font-size="10.00">create_transfers_file</text>
</g>
<!-- 13&#45;&gt;15 -->
<g id="edge32" class="edge">
<title>13&#45;&gt;15</title>
<path fill="none" stroke="grey" stroke-width="2" d="M775.76,-575.7C786.59,-566.88 799.92,-556.03 811.66,-546.47"/>
<polygon fill="grey" stroke="grey" stroke-width="2" points="813.94,-549.13 819.49,-540.1 809.52,-543.7 813.94,-549.13"/>
</g>
<!-- 14&#45;&gt;12 -->
<g id="edge29" class="edge">
<title>14&#45;&gt;12</title>
<path fill="none" stroke="grey" stroke-width="2" d="M785.19,-431.7C777.19,-423.22 767.43,-412.86 758.68,-403.58"/>
<polygon fill="grey" stroke="grey" stroke-width="2" points="761.03,-400.98 751.63,-396.1 755.94,-405.78 761.03,-400.98"/>
</g>
<!-- 15&#45;&gt;14 -->
<g id="edge31" class="edge">
<title>15&#45;&gt;14</title>
<path fill="none" stroke="grey" stroke-width="2" d="M830.86,-503.7C826.37,-495.64 820.94,-485.89 815.98,-476.98"/>
<polygon fill="grey" stroke="grey" stroke-width="2" points="818.95,-475.14 811.03,-468.1 812.84,-478.54 818.95,-475.14"/>
</g>
<!-- 16&#45;&gt;10 -->
<g id="edge25" class="edge">
<title>16&#45;&gt;10</title>
<path fill="none" stroke="grey" stroke-width="2" d="M771.41,-287.6C766.17,-258.06 755.13,-196.23 745.5,-144 743.95,-135.58 742.23,-126.42 740.66,-118.12"/>
<polygon fill="grey" stroke="grey" stroke-width="2" points="744.08,-117.35 738.78,-108.18 737.2,-118.66 744.08,-117.35"/>
</g>
<!-- 16&#45;&gt;18 -->
<g id="edge35" class="edge">
<title>16&#45;&gt;18</title>
<path fill="none" stroke="grey" stroke-width="2" d="M753.24,-287.7C742.41,-278.88 729.08,-268.03 717.34,-258.47"/>
<polygon fill="grey" stroke="grey" stroke-width="2" points="719.48,-255.7 709.51,-252.1 715.06,-261.13 719.48,-255.7"/>
</g>
<!-- 17 -->
<g id="node18" class="node">
<title>17</title>
<path fill="none" stroke="#56d88a" stroke-width="2" stroke-dasharray="5,2" d="M725,-180C725,-180 668,-180 668,-180 662,-180 656,-174 656,-168 656,-168 656,-156 656,-156 656,-150 662,-144 668,-144 668,-144 725,-144 725,-144 731,-144 737,-150 737,-156 737,-156 737,-168 737,-168 737,-174 731,-180 725,-180"/>
<text text-anchor="middle" x="696.5" y="-159.5" font-family="sans" font-size="10.00">extract_rates</text>
</g>
<!-- 17&#45;&gt;10 -->
<g id="edge26" class="edge">
<title>17&#45;&gt;10</title>
<path fill="none" stroke="grey" stroke-width="2" d="M706.14,-143.7C710.63,-135.64 716.06,-125.89 721.02,-116.98"/>
<polygon fill="grey" stroke="grey" stroke-width="2" points="724.16,-118.54 725.97,-108.1 718.05,-115.14 724.16,-118.54"/>
</g>
<!-- 18&#45;&gt;17 -->
<g id="edge34" class="edge">
<title>18&#45;&gt;17</title>
<path fill="none" stroke="grey" stroke-width="2" d="M690.48,-215.7C691.36,-207.98 692.42,-198.71 693.4,-190.11"/>
<polygon fill="grey" stroke="grey" stroke-width="2" points="696.89,-190.44 694.55,-180.1 689.93,-189.64 696.89,-190.44"/>
</g>
<!-- 19 -->
<g id="node20" class="node">
<title>19</title>
<path fill="none" stroke="#56d8c1" stroke-width="2" stroke-dasharray="5,2" d="M1238,-108C1238,-108 1125,-108 1125,-108 1119,-108 1113,-102 1113,-96 1113,-96 1113,-84 1113,-84 1113,-78 1119,-72 1125,-72 1125,-72 1238,-72 1238,-72 1244,-72 1250,-78 1250,-84 1250,-84 1250,-96 1250,-96 1250,-102 1244,-108 1238,-108"/>
<text text-anchor="middle" x="1181.5" y="-87.5" font-family="sans" font-size="10.00">reconcile_all_gene_trees</text>
</g>
<!-- 19&#45;&gt;0 -->
<g id="edge3" class="edge">
<title>19&#45;&gt;0</title>
<path fill="none" stroke="grey" stroke-width="2" d="M1250.13,-84.41C1451.42,-70.94 2035.75,-31.83 2189.87,-21.52"/>
<polygon fill="grey" stroke="grey" stroke-width="2" points="2190.47,-24.99 2200.21,-20.83 2190,-18 2190.47,-24.99"/>
</g>
<!-- 20 -->
<g id="node21" class="node">
<title>20</title>
<path fill="none" stroke="#d88d56" stroke-width="2" stroke-dasharray="5,2" d="M1091,-324C1091,-324 904,-324 904,-324 898,-324 892,-318 892,-312 892,-312 892,-300 892,-300 892,-294 898,-288 904,-288 904,-288 1091,-288 1091,-288 1097,-288 1103,-294 1103,-300 1103,-300 1103,-312 1103,-312 1103,-318 1097,-324 1091,-324"/>
<text text-anchor="middle" x="997.5" y="-303.5" font-family="sans" font-size="10.00">prepare_species_tree_for_reconciliation</text>
</g>
<!-- 20&#45;&gt;19 -->
<g id="edge37" class="edge">
<title>20&#45;&gt;19</title>
<path fill="none" stroke="grey" stroke-width="2" d="M1004.34,-287.9C1017.62,-256.35 1049.53,-188.16 1093.5,-144 1105.59,-131.86 1120.99,-121.37 1135.53,-113"/>
<polygon fill="grey" stroke="grey" stroke-width="2" points="1137.38,-115.97 1144.43,-108.06 1133.98,-109.85 1137.38,-115.97"/>
</g>
<!-- 27 -->
<g id="node28" class="node">
<title>27</title>
<path fill="none" stroke="#568ad8" stroke-width="2" stroke-dasharray="5,2" d="M1180,-252C1180,-252 1089,-252 1089,-252 1083,-252 1077,-246 1077,-240 1077,-240 1077,-228 1077,-228 1077,-222 1083,-216 1089,-216 1089,-216 1180,-216 1180,-216 1186,-216 1192,-222 1192,-228 1192,-228 1192,-240 1192,-240 1192,-246 1186,-252 1180,-252"/>
<text text-anchor="middle" x="1134.5" y="-231.5" font-family="sans" font-size="10.00">reconcile_gene_tree</text>
</g>
<!-- 20&#45;&gt;27 -->
<g id="edge49" class="edge">
<title>20&#45;&gt;27</title>
<path fill="none" stroke="grey" stroke-width="2" d="M1031.01,-287.88C1049.34,-278.51 1072.24,-266.81 1091.83,-256.8"/>
<polygon fill="grey" stroke="grey" stroke-width="2" points="1093.54,-259.86 1100.86,-252.19 1090.36,-253.62 1093.54,-259.86"/>
</g>
<!-- 21 -->
<g id="node22" class="node">
<title>21</title>
<path fill="none" stroke="#d85656" stroke-width="2" stroke-dasharray="5,2" d="M1041.5,-396C1041.5,-396 973.5,-396 973.5,-396 967.5,-396 961.5,-390 961.5,-384 961.5,-384 961.5,-372 961.5,-372 961.5,-366 967.5,-360 973.5,-360 973.5,-360 1041.5,-360 1041.5,-360 1047.5,-360 1053.5,-366 1053.5,-372 1053.5,-372 1053.5,-384 1053.5,-384 1053.5,-390 1047.5,-396 1041.5,-396"/>
<text text-anchor="middle" x="1007.5" y="-375.5" font-family="sans" font-size="10.00">sampling_trees</text>
</g>
<!-- 21&#45;&gt;20 -->
<g id="edge40" class="edge">
<title>21&#45;&gt;20</title>
<path fill="none" stroke="grey" stroke-width="2" d="M1005.03,-359.7C1003.93,-351.98 1002.6,-342.71 1001.37,-334.11"/>
<polygon fill="grey" stroke="grey" stroke-width="2" points="1004.82,-333.51 999.94,-324.1 997.89,-334.5 1004.82,-333.51"/>
</g>
<!-- 25 -->
<g id="node26" class="node">
<title>25</title>
<path fill="none" stroke="#88d856" stroke-width="2" stroke-dasharray="5,2" d="M1307.5,-324C1307.5,-324 1133.5,-324 1133.5,-324 1127.5,-324 1121.5,-318 1121.5,-312 1121.5,-312 1121.5,-300 1121.5,-300 1121.5,-294 1127.5,-288 1133.5,-288 1133.5,-288 1307.5,-288 1307.5,-288 1313.5,-288 1319.5,-294 1319.5,-300 1319.5,-300 1319.5,-312 1319.5,-312 1319.5,-318 1313.5,-324 1307.5,-324"/>
<text text-anchor="middle" x="1220.5" y="-303.5" font-family="sans" font-size="10.00">prepare_gene_tree_for_reconciliation</text>
</g>
<!-- 21&#45;&gt;25 -->
<g id="edge46" class="edge">
<title>21&#45;&gt;25</title>
<path fill="none" stroke="grey" stroke-width="2" d="M1053.72,-361.81C1084.56,-351.67 1125.47,-338.23 1159.05,-327.19"/>
<polygon fill="grey" stroke="grey" stroke-width="2" points="1160.36,-330.45 1168.77,-324 1158.17,-323.8 1160.36,-330.45"/>
</g>
<!-- 22 -->
<g id="node23" class="node">
<title>22</title>
<path fill="none" stroke="#59d856" stroke-width="2" stroke-dasharray="5,2" d="M1022,-612C1022,-612 919,-612 919,-612 913,-612 907,-606 907,-600 907,-600 907,-588 907,-588 907,-582 913,-576 919,-576 919,-576 1022,-576 1022,-576 1028,-576 1034,-582 1034,-588 1034,-588 1034,-600 1034,-600 1034,-606 1028,-612 1022,-612"/>
<text text-anchor="middle" x="970.5" y="-597" font-family="sans" font-size="10.00">generate_species_tree</text>
<text text-anchor="middle" x="970.5" y="-586" font-family="sans" font-size="10.00">sp_tree_index: 2</text>
</g>
<!-- 22&#45;&gt;21 -->
<g id="edge41" class="edge">
<title>22&#45;&gt;21</title>
<path fill="none" stroke="grey" stroke-width="2" d="M962.96,-575.73C950.85,-545.33 930.47,-480.86 951.5,-432 956.29,-420.87 964.69,-410.99 973.55,-402.86"/>
<polygon fill="grey" stroke="grey" stroke-width="2" points="976.04,-405.34 981.38,-396.18 971.5,-400.01 976.04,-405.34"/>
</g>
<!-- 23 -->
<g id="node24" class="node">
<title>23</title>
<path fill="none" stroke="#d8bc56" stroke-width="2" stroke-dasharray="5,2" d="M1062.5,-468C1062.5,-468 972.5,-468 972.5,-468 966.5,-468 960.5,-462 960.5,-456 960.5,-456 960.5,-444 960.5,-444 960.5,-438 966.5,-432 972.5,-432 972.5,-432 1062.5,-432 1062.5,-432 1068.5,-432 1074.5,-438 1074.5,-444 1074.5,-444 1074.5,-456 1074.5,-456 1074.5,-462 1068.5,-468 1062.5,-468"/>
<text text-anchor="middle" x="1017.5" y="-447.5" font-family="sans" font-size="10.00">generate_gene_tree</text>
</g>
<!-- 22&#45;&gt;23 -->
<g id="edge43" class="edge">
<title>22&#45;&gt;23</title>
<path fill="none" stroke="grey" stroke-width="2" d="M972.72,-575.88C975.41,-557.67 980.71,-528.21 989.5,-504 992.8,-494.9 997.4,-485.42 1001.92,-477.03"/>
<polygon fill="grey" stroke="grey" stroke-width="2" points="1005.08,-478.55 1006.91,-468.11 998.97,-475.13 1005.08,-478.55"/>
</g>
<!-- 24 -->
<g id="node25" class="node">
<title>24</title>
<path fill="none" stroke="#56c1d8" stroke-width="2" stroke-dasharray="5,2" d="M1102.5,-540C1102.5,-540 1010.5,-540 1010.5,-540 1004.5,-540 998.5,-534 998.5,-528 998.5,-528 998.5,-516 998.5,-516 998.5,-510 1004.5,-504 1010.5,-504 1010.5,-504 1102.5,-504 1102.5,-504 1108.5,-504 1114.5,-510 1114.5,-516 1114.5,-516 1114.5,-528 1114.5,-528 1114.5,-534 1108.5,-540 1102.5,-540"/>
<text text-anchor="middle" x="1056.5" y="-519.5" font-family="sans" font-size="10.00">create_transfers_file</text>
</g>
<!-- 22&#45;&gt;24 -->
<g id="edge45" class="edge">
<title>22&#45;&gt;24</title>
<path fill="none" stroke="grey" stroke-width="2" d="M991.76,-575.7C1002.59,-566.88 1015.92,-556.03 1027.66,-546.47"/>
<polygon fill="grey" stroke="grey" stroke-width="2" points="1029.94,-549.13 1035.49,-540.1 1025.52,-543.7 1029.94,-549.13"/>
</g>
<!-- 23&#45;&gt;21 -->
<g id="edge42" class="edge">
<title>23&#45;&gt;21</title>
<path fill="none" stroke="grey" stroke-width="2" d="M1015.03,-431.7C1013.93,-423.98 1012.6,-414.71 1011.37,-406.11"/>
<polygon fill="grey" stroke="grey" stroke-width="2" points="1014.82,-405.51 1009.94,-396.1 1007.89,-406.5 1014.82,-405.51"/>
</g>
<!-- 24&#45;&gt;23 -->
<g id="edge44" class="edge">
<title>24&#45;&gt;23</title>
<path fill="none" stroke="grey" stroke-width="2" d="M1046.86,-503.7C1042.37,-495.64 1036.94,-485.89 1031.98,-476.98"/>
<polygon fill="grey" stroke="grey" stroke-width="2" points="1034.95,-475.14 1027.03,-468.1 1028.84,-478.54 1034.95,-475.14"/>
</g>
<!-- 25&#45;&gt;19 -->
<g id="edge38" class="edge">
<title>25&#45;&gt;19</title>
<path fill="none" stroke="grey" stroke-width="2" d="M1217.66,-287.57C1212.8,-258 1202.44,-196.11 1192.5,-144 1190.89,-135.56 1189.03,-126.39 1187.3,-118.09"/>
<polygon fill="grey" stroke="grey" stroke-width="2" points="1190.69,-117.22 1185.21,-108.16 1183.84,-118.66 1190.69,-117.22"/>
</g>
<!-- 25&#45;&gt;27 -->
<g id="edge48" class="edge">
<title>25&#45;&gt;27</title>
<path fill="none" stroke="grey" stroke-width="2" d="M1199.24,-287.7C1188.41,-278.88 1175.08,-268.03 1163.34,-258.47"/>
<polygon fill="grey" stroke="grey" stroke-width="2" points="1165.48,-255.7 1155.51,-252.1 1161.06,-261.13 1165.48,-255.7"/>
</g>
<!-- 26 -->
<g id="node27" class="node">
<title>26</title>
<path fill="none" stroke="#56d88a" stroke-width="2" stroke-dasharray="5,2" d="M1172,-180C1172,-180 1115,-180 1115,-180 1109,-180 1103,-174 1103,-168 1103,-168 1103,-156 1103,-156 1103,-150 1109,-144 1115,-144 1115,-144 1172,-144 1172,-144 1178,-144 1184,-150 1184,-156 1184,-156 1184,-168 1184,-168 1184,-174 1178,-180 1172,-180"/>
<text text-anchor="middle" x="1143.5" y="-159.5" font-family="sans" font-size="10.00">extract_rates</text>
</g>
<!-- 26&#45;&gt;19 -->
<g id="edge39" class="edge">
<title>26&#45;&gt;19</title>
<path fill="none" stroke="grey" stroke-width="2" d="M1152.89,-143.7C1157.26,-135.64 1162.56,-125.89 1167.4,-116.98"/>
<polygon fill="grey" stroke="grey" stroke-width="2" points="1170.52,-118.56 1172.21,-108.1 1164.37,-115.22 1170.52,-118.56"/>
</g>
<!-- 27&#45;&gt;26 -->
<g id="edge47" class="edge">
<title>27&#45;&gt;26</title>
<path fill="none" stroke="grey" stroke-width="2" d="M1136.72,-215.7C1137.72,-207.98 1138.91,-198.71 1140.01,-190.11"/>
<polygon fill="grey" stroke="grey" stroke-width="2" points="1143.5,-190.47 1141.3,-180.1 1136.55,-189.58 1143.5,-190.47"/>
</g>
<!-- 28 -->
<g id="node29" class="node">
<title>28</title>
<path fill="none" stroke="#56d8c1" stroke-width="2" stroke-dasharray="5,2" d="M1684,-108C1684,-108 1571,-108 1571,-108 1565,-108 1559,-102 1559,-96 1559,-96 1559,-84 1559,-84 1559,-78 1565,-72 1571,-72 1571,-72 1684,-72 1684,-72 1690,-72 1696,-78 1696,-84 1696,-84 1696,-96 1696,-96 1696,-102 1690,-108 1684,-108"/>
<text text-anchor="middle" x="1627.5" y="-87.5" font-family="sans" font-size="10.00">reconcile_all_gene_trees</text>
</g>
<!-- 28&#45;&gt;0 -->
<g id="edge4" class="edge">
<title>28&#45;&gt;0</title>
<path fill="none" stroke="grey" stroke-width="2" d="M1696.04,-81C1823.16,-66.17 2091.52,-34.86 2190.13,-23.36"/>
<polygon fill="grey" stroke="grey" stroke-width="2" points="2190.69,-26.82 2200.22,-22.18 2189.88,-19.87 2190.69,-26.82"/>
</g>
<!-- 29 -->
<g id="node30" class="node">
<title>29</title>
<path fill="none" stroke="#d88d56" stroke-width="2" stroke-dasharray="5,2" d="M1537,-324C1537,-324 1350,-324 1350,-324 1344,-324 1338,-318 1338,-312 1338,-312 1338,-300 1338,-300 1338,-294 1344,-288 1350,-288 1350,-288 1537,-288 1537,-288 1543,-288 1549,-294 1549,-300 1549,-300 1549,-312 1549,-312 1549,-318 1543,-324 1537,-324"/>
<text text-anchor="middle" x="1443.5" y="-303.5" font-family="sans" font-size="10.00">prepare_species_tree_for_reconciliation</text>
</g>
<!-- 29&#45;&gt;28 -->
<g id="edge50" class="edge">
<title>29&#45;&gt;28</title>
<path fill="none" stroke="grey" stroke-width="2" d="M1450.2,-287.88C1463.24,-256.28 1494.64,-188.04 1538.5,-144 1550.59,-131.87 1566,-121.42 1580.59,-113.1"/>
<polygon fill="grey" stroke="grey" stroke-width="2" points="1582.44,-116.07 1589.53,-108.19 1579.08,-109.93 1582.44,-116.07"/>
</g>
<!-- 36 -->
<g id="node37" class="node">
<title>36</title>
<path fill="none" stroke="#568ad8" stroke-width="2" stroke-dasharray="5,2" d="M1626,-252C1626,-252 1535,-252 1535,-252 1529,-252 1523,-246 1523,-240 1523,-240 1523,-228 1523,-228 1523,-222 1529,-216 1535,-216 1535,-216 1626,-216 1626,-216 1632,-216 1638,-222 1638,-228 1638,-228 1638,-240 1638,-240 1638,-246 1632,-252 1626,-252"/>
<text text-anchor="middle" x="1580.5" y="-231.5" font-family="sans" font-size="10.00">reconcile_gene_tree</text>
</g>
<!-- 29&#45;&gt;36 -->
<g id="edge62" class="edge">
<title>29&#45;&gt;36</title>
<path fill="none" stroke="grey" stroke-width="2" d="M1477.01,-287.88C1495.34,-278.51 1518.24,-266.81 1537.83,-256.8"/>
<polygon fill="grey" stroke="grey" stroke-width="2" points="1539.54,-259.86 1546.86,-252.19 1536.36,-253.62 1539.54,-259.86"/>
</g>
<!-- 30 -->
<g id="node31" class="node">
<title>30</title>
<path fill="none" stroke="#d85656" stroke-width="2" stroke-dasharray="5,2" d="M1661.5,-396C1661.5,-396 1593.5,-396 1593.5,-396 1587.5,-396 1581.5,-390 1581.5,-384 1581.5,-384 1581.5,-372 1581.5,-372 1581.5,-366 1587.5,-360 1593.5,-360 1593.5,-360 1661.5,-360 1661.5,-360 1667.5,-360 1673.5,-366 1673.5,-372 1673.5,-372 1673.5,-384 1673.5,-384 1673.5,-390 1667.5,-396 1661.5,-396"/>
<text text-anchor="middle" x="1627.5" y="-375.5" font-family="sans" font-size="10.00">sampling_trees</text>
</g>
<!-- 30&#45;&gt;29 -->
<g id="edge53" class="edge">
<title>30&#45;&gt;29</title>
<path fill="none" stroke="grey" stroke-width="2" d="M1582.49,-359.88C1557,-350.18 1524.93,-337.98 1498.02,-327.74"/>
<polygon fill="grey" stroke="grey" stroke-width="2" points="1498.96,-324.35 1488.37,-324.07 1496.47,-330.9 1498.96,-324.35"/>
</g>
<!-- 34 -->
<g id="node35" class="node">
<title>34</title>
<path fill="none" stroke="#88d856" stroke-width="2" stroke-dasharray="5,2" d="M1753.5,-324C1753.5,-324 1579.5,-324 1579.5,-324 1573.5,-324 1567.5,-318 1567.5,-312 1567.5,-312 1567.5,-300 1567.5,-300 1567.5,-294 1573.5,-288 1579.5,-288 1579.5,-288 1753.5,-288 1753.5,-288 1759.5,-288 1765.5,-294 1765.5,-300 1765.5,-300 1765.5,-312 1765.5,-312 1765.5,-318 1759.5,-324 1753.5,-324"/>
<text text-anchor="middle" x="1666.5" y="-303.5" font-family="sans" font-size="10.00">prepare_gene_tree_for_reconciliation</text>
</g>
<!-- 30&#45;&gt;34 -->
<g id="edge59" class="edge">
<title>30&#45;&gt;34</title>
<path fill="none" stroke="grey" stroke-width="2" d="M1637.14,-359.7C1641.63,-351.64 1647.06,-341.89 1652.02,-332.98"/>
<polygon fill="grey" stroke="grey" stroke-width="2" points="1655.16,-334.54 1656.97,-324.1 1649.05,-331.14 1655.16,-334.54"/>
</g>
<!-- 31 -->
<g id="node32" class="node">
<title>31</title>
<path fill="none" stroke="#59d856" stroke-width="2" stroke-dasharray="5,2" d="M1698,-612C1698,-612 1595,-612 1595,-612 1589,-612 1583,-606 1583,-600 1583,-600 1583,-588 1583,-588 1583,-582 1589,-576 1595,-576 1595,-576 1698,-576 1698,-576 1704,-576 1710,-582 1710,-588 1710,-588 1710,-600 1710,-600 1710,-606 1704,-612 1698,-612"/>
<text text-anchor="middle" x="1646.5" y="-597" font-family="sans" font-size="10.00">generate_species_tree</text>
<text text-anchor="middle" x="1646.5" y="-586" font-family="sans" font-size="10.00">sp_tree_index: 3</text>
</g>
<!-- 31&#45;&gt;30 -->
<g id="edge54" class="edge">
<title>31&#45;&gt;30</title>
<path fill="none" stroke="grey" stroke-width="2" d="M1643.02,-575.7C1638.39,-551.67 1630.43,-506.74 1627.5,-468 1625.94,-447.33 1626.01,-423.88 1626.44,-406.24"/>
<polygon fill="grey" stroke="grey" stroke-width="2" points="1629.94,-406.19 1626.74,-396.09 1622.94,-405.98 1629.94,-406.19"/>
</g>
<!-- 32 -->
<g id="node33" class="node">
<title>32</title>
<path fill="none" stroke="#d8bc56" stroke-width="2" stroke-dasharray="5,2" d="M1738.5,-468C1738.5,-468 1648.5,-468 1648.5,-468 1642.5,-468 1636.5,-462 1636.5,-456 1636.5,-456 1636.5,-444 1636.5,-444 1636.5,-438 1642.5,-432 1648.5,-432 1648.5,-432 1738.5,-432 1738.5,-432 1744.5,-432 1750.5,-438 1750.5,-444 1750.5,-444 1750.5,-456 1750.5,-456 1750.5,-462 1744.5,-468 1738.5,-468"/>
<text text-anchor="middle" x="1693.5" y="-447.5" font-family="sans" font-size="10.00">generate_gene_tree</text>
</g>
<!-- 31&#45;&gt;32 -->
<g id="edge56" class="edge">
<title>31&#45;&gt;32</title>
<path fill="none" stroke="grey" stroke-width="2" d="M1648.72,-575.88C1651.41,-557.67 1656.71,-528.21 1665.5,-504 1668.8,-494.9 1673.4,-485.42 1677.92,-477.03"/>
<polygon fill="grey" stroke="grey" stroke-width="2" points="1681.08,-478.55 1682.91,-468.11 1674.97,-475.13 1681.08,-478.55"/>
</g>
<!-- 33 -->
<g id="node34" class="node">
<title>33</title>
<path fill="none" stroke="#56c1d8" stroke-width="2" stroke-dasharray="5,2" d="M1778.5,-540C1778.5,-540 1686.5,-540 1686.5,-540 1680.5,-540 1674.5,-534 1674.5,-528 1674.5,-528 1674.5,-516 1674.5,-516 1674.5,-510 1680.5,-504 1686.5,-504 1686.5,-504 1778.5,-504 1778.5,-504 1784.5,-504 1790.5,-510 1790.5,-516 1790.5,-516 1790.5,-528 1790.5,-528 1790.5,-534 1784.5,-540 1778.5,-540"/>
<text text-anchor="middle" x="1732.5" y="-519.5" font-family="sans" font-size="10.00">create_transfers_file</text>
</g>
<!-- 31&#45;&gt;33 -->
<g id="edge58" class="edge">
<title>31&#45;&gt;33</title>
<path fill="none" stroke="grey" stroke-width="2" d="M1667.76,-575.7C1678.59,-566.88 1691.92,-556.03 1703.66,-546.47"/>
<polygon fill="grey" stroke="grey" stroke-width="2" points="1705.94,-549.13 1711.49,-540.1 1701.52,-543.7 1705.94,-549.13"/>
</g>
<!-- 32&#45;&gt;30 -->
<g id="edge55" class="edge">
<title>32&#45;&gt;30</title>
<path fill="none" stroke="grey" stroke-width="2" d="M1677.19,-431.7C1669.19,-423.22 1659.43,-412.86 1650.68,-403.58"/>
<polygon fill="grey" stroke="grey" stroke-width="2" points="1653.03,-400.98 1643.63,-396.1 1647.94,-405.78 1653.03,-400.98"/>
</g>
<!-- 33&#45;&gt;32 -->
<g id="edge57" class="edge">
<title>33&#45;&gt;32</title>
<path fill="none" stroke="grey" stroke-width="2" d="M1722.86,-503.7C1718.37,-495.64 1712.94,-485.89 1707.98,-476.98"/>
<polygon fill="grey" stroke="grey" stroke-width="2" points="1710.95,-475.14 1703.03,-468.1 1704.84,-478.54 1710.95,-475.14"/>
</g>
<!-- 34&#45;&gt;28 -->
<g id="edge51" class="edge">
<title>34&#45;&gt;28</title>
<path fill="none" stroke="grey" stroke-width="2" d="M1663.41,-287.6C1658.17,-258.06 1647.13,-196.23 1637.5,-144 1635.95,-135.58 1634.23,-126.42 1632.66,-118.12"/>
<polygon fill="grey" stroke="grey" stroke-width="2" points="1636.08,-117.35 1630.78,-108.18 1629.2,-118.66 1636.08,-117.35"/>
</g>
<!-- 34&#45;&gt;36 -->
<g id="edge61" class="edge">
<title>34&#45;&gt;36</title>
<path fill="none" stroke="grey" stroke-width="2" d="M1645.24,-287.7C1634.41,-278.88 1621.08,-268.03 1609.34,-258.47"/>
<polygon fill="grey" stroke="grey" stroke-width="2" points="1611.48,-255.7 1601.51,-252.1 1607.06,-261.13 1611.48,-255.7"/>
</g>
<!-- 35 -->
<g id="node36" class="node">
<title>35</title>
<path fill="none" stroke="#56d88a" stroke-width="2" stroke-dasharray="5,2" d="M1617,-180C1617,-180 1560,-180 1560,-180 1554,-180 1548,-174 1548,-168 1548,-168 1548,-156 1548,-156 1548,-150 1554,-144 1560,-144 1560,-144 1617,-144 1617,-144 1623,-144 1629,-150 1629,-156 1629,-156 1629,-168 1629,-168 1629,-174 1623,-180 1617,-180"/>
<text text-anchor="middle" x="1588.5" y="-159.5" font-family="sans" font-size="10.00">extract_rates</text>
</g>
<!-- 35&#45;&gt;28 -->
<g id="edge52" class="edge">
<title>35&#45;&gt;28</title>
<path fill="none" stroke="grey" stroke-width="2" d="M1598.14,-143.7C1602.63,-135.64 1608.06,-125.89 1613.02,-116.98"/>
<polygon fill="grey" stroke="grey" stroke-width="2" points="1616.16,-118.54 1617.97,-108.1 1610.05,-115.14 1616.16,-118.54"/>
</g>
<!-- 36&#45;&gt;35 -->
<g id="edge60" class="edge">
<title>36&#45;&gt;35</title>
<path fill="none" stroke="grey" stroke-width="2" d="M1582.48,-215.7C1583.36,-207.98 1584.42,-198.71 1585.4,-190.11"/>
<polygon fill="grey" stroke="grey" stroke-width="2" points="1588.89,-190.44 1586.55,-180.1 1581.93,-189.64 1588.89,-190.44"/>
</g>
<!-- 37 -->
<g id="node38" class="node">
<title>37</title>
<path fill="none" stroke="#56d8c1" stroke-width="2" stroke-dasharray="5,2" d="M2130,-108C2130,-108 2017,-108 2017,-108 2011,-108 2005,-102 2005,-96 2005,-96 2005,-84 2005,-84 2005,-78 2011,-72 2017,-72 2017,-72 2130,-72 2130,-72 2136,-72 2142,-78 2142,-84 2142,-84 2142,-96 2142,-96 2142,-102 2136,-108 2130,-108"/>
<text text-anchor="middle" x="2073.5" y="-87.5" font-family="sans" font-size="10.00">reconcile_all_gene_trees</text>
</g>
<!-- 37&#45;&gt;0 -->
<g id="edge5" class="edge">
<title>37&#45;&gt;0</title>
<path fill="none" stroke="grey" stroke-width="2" d="M2111.17,-71.88C2135.54,-60.8 2167.1,-46.46 2191.19,-35.5"/>
<polygon fill="grey" stroke="grey" stroke-width="2" points="2192.7,-38.66 2200.36,-31.34 2189.8,-32.29 2192.7,-38.66"/>
</g>
<!-- 38 -->
<g id="node39" class="node">
<title>38</title>
<path fill="none" stroke="#d88d56" stroke-width="2" stroke-dasharray="5,2" d="M1983,-324C1983,-324 1796,-324 1796,-324 1790,-324 1784,-318 1784,-312 1784,-312 1784,-300 1784,-300 1784,-294 1790,-288 1796,-288 1796,-288 1983,-288 1983,-288 1989,-288 1995,-294 1995,-300 1995,-300 1995,-312 1995,-312 1995,-318 1989,-324 1983,-324"/>
<text text-anchor="middle" x="1889.5" y="-303.5" font-family="sans" font-size="10.00">prepare_species_tree_for_reconciliation</text>
</g>
<!-- 38&#45;&gt;37 -->
<g id="edge63" class="edge">
<title>38&#45;&gt;37</title>
<path fill="none" stroke="grey" stroke-width="2" d="M1896.2,-287.88C1909.24,-256.28 1940.64,-188.04 1984.5,-144 1996.59,-131.87 2012,-121.42 2026.59,-113.1"/>
<polygon fill="grey" stroke="grey" stroke-width="2" points="2028.44,-116.07 2035.53,-108.19 2025.08,-109.93 2028.44,-116.07"/>
</g>
<!-- 45 -->
<g id="node46" class="node">
<title>45</title>
<path fill="none" stroke="#568ad8" stroke-width="2" stroke-dasharray="5,2" d="M2072,-252C2072,-252 1981,-252 1981,-252 1975,-252 1969,-246 1969,-240 1969,-240 1969,-228 1969,-228 1969,-222 1975,-216 1981,-216 1981,-216 2072,-216 2072,-216 2078,-216 2084,-222 2084,-228 2084,-228 2084,-240 2084,-240 2084,-246 2078,-252 2072,-252"/>
<text text-anchor="middle" x="2026.5" y="-231.5" font-family="sans" font-size="10.00">reconcile_gene_tree</text>
</g>
<!-- 38&#45;&gt;45 -->
<g id="edge75" class="edge">
<title>38&#45;&gt;45</title>
<path fill="none" stroke="grey" stroke-width="2" d="M1923.01,-287.88C1941.34,-278.51 1964.24,-266.81 1983.83,-256.8"/>
<polygon fill="grey" stroke="grey" stroke-width="2" points="1985.54,-259.86 1992.86,-252.19 1982.36,-253.62 1985.54,-259.86"/>
</g>
<!-- 39 -->
<g id="node40" class="node">
<title>39</title>
<path fill="none" stroke="#d85656" stroke-width="2" stroke-dasharray="5,2" d="M1933.5,-396C1933.5,-396 1865.5,-396 1865.5,-396 1859.5,-396 1853.5,-390 1853.5,-384 1853.5,-384 1853.5,-372 1853.5,-372 1853.5,-366 1859.5,-360 1865.5,-360 1865.5,-360 1933.5,-360 1933.5,-360 1939.5,-360 1945.5,-366 1945.5,-372 1945.5,-372 1945.5,-384 1945.5,-384 1945.5,-390 1939.5,-396 1933.5,-396"/>
<text text-anchor="middle" x="1899.5" y="-375.5" font-family="sans" font-size="10.00">sampling_trees</text>
</g>
<!-- 39&#45;&gt;38 -->
<g id="edge66" class="edge">
<title>39&#45;&gt;38</title>
<path fill="none" stroke="grey" stroke-width="2" d="M1897.03,-359.7C1895.93,-351.98 1894.6,-342.71 1893.37,-334.11"/>
<polygon fill="grey" stroke="grey" stroke-width="2" points="1896.82,-333.51 1891.94,-324.1 1889.89,-334.5 1896.82,-333.51"/>
</g>
<!-- 43 -->
<g id="node44" class="node">
<title>43</title>
<path fill="none" stroke="#88d856" stroke-width="2" stroke-dasharray="5,2" d="M2199.5,-324C2199.5,-324 2025.5,-324 2025.5,-324 2019.5,-324 2013.5,-318 2013.5,-312 2013.5,-312 2013.5,-300 2013.5,-300 2013.5,-294 2019.5,-288 2025.5,-288 2025.5,-288 2199.5,-288 2199.5,-288 2205.5,-288 2211.5,-294 2211.5,-300 2211.5,-300 2211.5,-312 2211.5,-312 2211.5,-318 2205.5,-324 2199.5,-324"/>
<text text-anchor="middle" x="2112.5" y="-303.5" font-family="sans" font-size="10.00">prepare_gene_tree_for_reconciliation</text>
</g>
<!-- 39&#45;&gt;43 -->
<g id="edge72" class="edge">
<title>39&#45;&gt;43</title>
<path fill="none" stroke="grey" stroke-width="2" d="M1945.72,-361.81C1976.56,-351.67 2017.47,-338.23 2051.05,-327.19"/>
<polygon fill="grey" stroke="grey" stroke-width="2" points="2052.36,-330.45 2060.77,-324 2050.17,-323.8 2052.36,-330.45"/>
</g>
<!-- 40 -->
<g id="node41" class="node">
<title>40</title>
<path fill="none" stroke="#59d856" stroke-width="2" stroke-dasharray="5,2" d="M1914,-612C1914,-612 1811,-612 1811,-612 1805,-612 1799,-606 1799,-600 1799,-600 1799,-588 1799,-588 1799,-582 1805,-576 1811,-576 1811,-576 1914,-576 1914,-576 1920,-576 1926,-582 1926,-588 1926,-588 1926,-600 1926,-600 1926,-606 1920,-612 1914,-612"/>
<text text-anchor="middle" x="1862.5" y="-597" font-family="sans" font-size="10.00">generate_species_tree</text>
<text text-anchor="middle" x="1862.5" y="-586" font-family="sans" font-size="10.00">sp_tree_index: 4</text>
</g>
<!-- 40&#45;&gt;39 -->
<g id="edge67" class="edge">
<title>40&#45;&gt;39</title>
<path fill="none" stroke="grey" stroke-width="2" d="M1854.96,-575.73C1842.85,-545.33 1822.47,-480.86 1843.5,-432 1848.29,-420.87 1856.69,-410.99 1865.55,-402.86"/>
<polygon fill="grey" stroke="grey" stroke-width="2" points="1868.04,-405.34 1873.38,-396.18 1863.5,-400.01 1868.04,-405.34"/>
</g>
<!-- 41 -->
<g id="node42" class="node">
<title>41</title>
<path fill="none" stroke="#d8bc56" stroke-width="2" stroke-dasharray="5,2" d="M1954.5,-468C1954.5,-468 1864.5,-468 1864.5,-468 1858.5,-468 1852.5,-462 1852.5,-456 1852.5,-456 1852.5,-444 1852.5,-444 1852.5,-438 1858.5,-432 1864.5,-432 1864.5,-432 1954.5,-432 1954.5,-432 1960.5,-432 1966.5,-438 1966.5,-444 1966.5,-444 1966.5,-456 1966.5,-456 1966.5,-462 1960.5,-468 1954.5,-468"/>
<text text-anchor="middle" x="1909.5" y="-447.5" font-family="sans" font-size="10.00">generate_gene_tree</text>
</g>
<!-- 40&#45;&gt;41 -->
<g id="edge69" class="edge">
<title>40&#45;&gt;41</title>
<path fill="none" stroke="grey" stroke-width="2" d="M1864.72,-575.88C1867.41,-557.67 1872.71,-528.21 1881.5,-504 1884.8,-494.9 1889.4,-485.42 1893.92,-477.03"/>
<polygon fill="grey" stroke="grey" stroke-width="2" points="1897.08,-478.55 1898.91,-468.11 1890.97,-475.13 1897.08,-478.55"/>
</g>
<!-- 42 -->
<g id="node43" class="node">
<title>42</title>
<path fill="none" stroke="#56c1d8" stroke-width="2" stroke-dasharray="5,2" d="M1994.5,-540C1994.5,-540 1902.5,-540 1902.5,-540 1896.5,-540 1890.5,-534 1890.5,-528 1890.5,-528 1890.5,-516 1890.5,-516 1890.5,-510 1896.5,-504 1902.5,-504 1902.5,-504 1994.5,-504 1994.5,-504 2000.5,-504 2006.5,-510 2006.5,-516 2006.5,-516 2006.5,-528 2006.5,-528 2006.5,-534 2000.5,-540 1994.5,-540"/>
<text text-anchor="middle" x="1948.5" y="-519.5" font-family="sans" font-size="10.00">create_transfers_file</text>
</g>
<!-- 40&#45;&gt;42 -->
<g id="edge71" class="edge">
<title>40&#45;&gt;42</title>
<path fill="none" stroke="grey" stroke-width="2" d="M1883.76,-575.7C1894.59,-566.88 1907.92,-556.03 1919.66,-546.47"/>
<polygon fill="grey" stroke="grey" stroke-width="2" points="1921.94,-549.13 1927.49,-540.1 1917.52,-543.7 1921.94,-549.13"/>
</g>
<!-- 41&#45;&gt;39 -->
<g id="edge68" class="edge">
<title>41&#45;&gt;39</title>
<path fill="none" stroke="grey" stroke-width="2" d="M1907.03,-431.7C1905.93,-423.98 1904.6,-414.71 1903.37,-406.11"/>
<polygon fill="grey" stroke="grey" stroke-width="2" points="1906.82,-405.51 1901.94,-396.1 1899.89,-406.5 1906.82,-405.51"/>
</g>
<!-- 42&#45;&gt;41 -->
<g id="edge70" class="edge">
<title>42&#45;&gt;41</title>
<path fill="none" stroke="grey" stroke-width="2" d="M1938.86,-503.7C1934.37,-495.64 1928.94,-485.89 1923.98,-476.98"/>
<polygon fill="grey" stroke="grey" stroke-width="2" points="1926.95,-475.14 1919.03,-468.1 1920.84,-478.54 1926.95,-475.14"/>
</g>
<!-- 43&#45;&gt;37 -->
<g id="edge64" class="edge">
<title>43&#45;&gt;37</title>
<path fill="none" stroke="grey" stroke-width="2" d="M2109.41,-287.6C2104.17,-258.06 2093.13,-196.23 2083.5,-144 2081.95,-135.58 2080.23,-126.42 2078.66,-118.12"/>
<polygon fill="grey" stroke="grey" stroke-width="2" points="2082.08,-117.35 2076.78,-108.18 2075.2,-118.66 2082.08,-117.35"/>
</g>
<!-- 43&#45;&gt;45 -->
<g id="edge74" class="edge">
<title>43&#45;&gt;45</title>
<path fill="none" stroke="grey" stroke-width="2" d="M2091.24,-287.7C2080.41,-278.88 2067.08,-268.03 2055.34,-258.47"/>
<polygon fill="grey" stroke="grey" stroke-width="2" points="2057.48,-255.7 2047.51,-252.1 2053.06,-261.13 2057.48,-255.7"/>
</g>
<!-- 44 -->
<g id="node45" class="node">
<title>44</title>
<path fill="none" stroke="#56d88a" stroke-width="2" stroke-dasharray="5,2" d="M2063,-180C2063,-180 2006,-180 2006,-180 2000,-180 1994,-174 1994,-168 1994,-168 1994,-156 1994,-156 1994,-150 2000,-144 2006,-144 2006,-144 2063,-144 2063,-144 2069,-144 2075,-150 2075,-156 2075,-156 2075,-168 2075,-168 2075,-174 2069,-180 2063,-180"/>
<text text-anchor="middle" x="2034.5" y="-159.5" font-family="sans" font-size="10.00">extract_rates</text>
</g>
<!-- 44&#45;&gt;37 -->
<g id="edge65" class="edge">
<title>44&#45;&gt;37</title>
<path fill="none" stroke="grey" stroke-width="2" d="M2044.14,-143.7C2048.63,-135.64 2054.06,-125.89 2059.02,-116.98"/>
<polygon fill="grey" stroke="grey" stroke-width="2" points="2062.16,-118.54 2063.97,-108.1 2056.05,-115.14 2062.16,-118.54"/>
</g>
<!-- 45&#45;&gt;44 -->
<g id="edge73" class="edge">
<title>45&#45;&gt;44</title>
<path fill="none" stroke="grey" stroke-width="2" d="M2028.48,-215.7C2029.36,-207.98 2030.42,-198.71 2031.4,-190.11"/>
<polygon fill="grey" stroke="grey" stroke-width="2" points="2034.89,-190.44 2032.55,-180.1 2027.93,-189.64 2034.89,-190.44"/>
</g>
<!-- 46 -->
<g id="node47" class="node">
<title>46</title>
<path fill="none" stroke="#56d8c1" stroke-width="2" stroke-dasharray="5,2" d="M2431,-108C2431,-108 2318,-108 2318,-108 2312,-108 2306,-102 2306,-96 2306,-96 2306,-84 2306,-84 2306,-78 2312,-72 2318,-72 2318,-72 2431,-72 2431,-72 2437,-72 2443,-78 2443,-84 2443,-84 2443,-96 2443,-96 2443,-102 2437,-108 2431,-108"/>
<text text-anchor="middle" x="2374.5" y="-87.5" font-family="sans" font-size="10.00">reconcile_all_gene_trees</text>
</g>
<!-- 46&#45;&gt;0 -->
<g id="edge6" class="edge">
<title>46&#45;&gt;0</title>
<path fill="none" stroke="grey" stroke-width="2" d="M2338.54,-71.88C2315.93,-61.11 2286.84,-47.26 2264.11,-36.43"/>
<polygon fill="grey" stroke="grey" stroke-width="2" points="2265.33,-33.14 2254.79,-32 2262.32,-39.46 2265.33,-33.14"/>
</g>
<!-- 47 -->
<g id="node48" class="node">
<title>47</title>
<path fill="none" stroke="#d88d56" stroke-width="2" stroke-dasharray="5,2" d="M2429,-324C2429,-324 2242,-324 2242,-324 2236,-324 2230,-318 2230,-312 2230,-312 2230,-300 2230,-300 2230,-294 2236,-288 2242,-288 2242,-288 2429,-288 2429,-288 2435,-288 2441,-294 2441,-300 2441,-300 2441,-312 2441,-312 2441,-318 2435,-324 2429,-324"/>
<text text-anchor="middle" x="2335.5" y="-303.5" font-family="sans" font-size="10.00">prepare_species_tree_for_reconciliation</text>
</g>
<!-- 47&#45;&gt;46 -->
<g id="edge76" class="edge">
<title>47&#45;&gt;46</title>
<path fill="none" stroke="grey" stroke-width="2" d="M2338.34,-287.57C2343.2,-258 2353.56,-196.11 2363.5,-144 2365.11,-135.56 2366.97,-126.39 2368.7,-118.09"/>
<polygon fill="grey" stroke="grey" stroke-width="2" points="2372.16,-118.66 2370.79,-108.16 2365.31,-117.22 2372.16,-118.66"/>
</g>
<!-- 54 -->
<g id="node55" class="node">
<title>54</title>
<path fill="none" stroke="#568ad8" stroke-width="2" stroke-dasharray="5,2" d="M2467,-252C2467,-252 2376,-252 2376,-252 2370,-252 2364,-246 2364,-240 2364,-240 2364,-228 2364,-228 2364,-222 2370,-216 2376,-216 2376,-216 2467,-216 2467,-216 2473,-216 2479,-222 2479,-228 2479,-228 2479,-240 2479,-240 2479,-246 2473,-252 2467,-252"/>
<text text-anchor="middle" x="2421.5" y="-231.5" font-family="sans" font-size="10.00">reconcile_gene_tree</text>
</g>
<!-- 47&#45;&gt;54 -->
<g id="edge88" class="edge">
<title>47&#45;&gt;54</title>
<path fill="none" stroke="grey" stroke-width="2" d="M2356.76,-287.7C2367.59,-278.88 2380.92,-268.03 2392.66,-258.47"/>
<polygon fill="grey" stroke="grey" stroke-width="2" points="2394.94,-261.13 2400.49,-252.1 2390.52,-255.7 2394.94,-261.13"/>
</g>
<!-- 48 -->
<g id="node49" class="node">
<title>48</title>
<path fill="none" stroke="#d85656" stroke-width="2" stroke-dasharray="5,2" d="M2480.5,-396C2480.5,-396 2412.5,-396 2412.5,-396 2406.5,-396 2400.5,-390 2400.5,-384 2400.5,-384 2400.5,-372 2400.5,-372 2400.5,-366 2406.5,-360 2412.5,-360 2412.5,-360 2480.5,-360 2480.5,-360 2486.5,-360 2492.5,-366 2492.5,-372 2492.5,-372 2492.5,-384 2492.5,-384 2492.5,-390 2486.5,-396 2480.5,-396"/>
<text text-anchor="middle" x="2446.5" y="-375.5" font-family="sans" font-size="10.00">sampling_trees</text>
</g>
<!-- 48&#45;&gt;47 -->
<g id="edge79" class="edge">
<title>48&#45;&gt;47</title>
<path fill="none" stroke="grey" stroke-width="2" d="M2419.35,-359.88C2404.97,-350.81 2387.12,-339.55 2371.59,-329.76"/>
<polygon fill="grey" stroke="grey" stroke-width="2" points="2373.08,-326.56 2362.76,-324.19 2369.35,-332.48 2373.08,-326.56"/>
</g>
<!-- 52 -->
<g id="node53" class="node">
<title>52</title>
<path fill="none" stroke="#88d856" stroke-width="2" stroke-dasharray="5,2" d="M2645.5,-324C2645.5,-324 2471.5,-324 2471.5,-324 2465.5,-324 2459.5,-318 2459.5,-312 2459.5,-312 2459.5,-300 2459.5,-300 2459.5,-294 2465.5,-288 2471.5,-288 2471.5,-288 2645.5,-288 2645.5,-288 2651.5,-288 2657.5,-294 2657.5,-300 2657.5,-300 2657.5,-312 2657.5,-312 2657.5,-318 2651.5,-324 2645.5,-324"/>
<text text-anchor="middle" x="2558.5" y="-303.5" font-family="sans" font-size="10.00">prepare_gene_tree_for_reconciliation</text>
</g>
<!-- 48&#45;&gt;52 -->
<g id="edge85" class="edge">
<title>48&#45;&gt;52</title>
<path fill="none" stroke="grey" stroke-width="2" d="M2473.9,-359.88C2488.41,-350.81 2506.42,-339.55 2522.09,-329.76"/>
<polygon fill="grey" stroke="grey" stroke-width="2" points="2524.37,-332.46 2531,-324.19 2520.66,-326.52 2524.37,-332.46"/>
</g>
<!-- 49 -->
<g id="node50" class="node">
<title>49</title>
<path fill="none" stroke="#59d856" stroke-width="2" stroke-dasharray="5,2" d="M2494,-612C2494,-612 2391,-612 2391,-612 2385,-612 2379,-606 2379,-600 2379,-600 2379,-588 2379,-588 2379,-582 2385,-576 2391,-576 2391,-576 2494,-576 2494,-576 2500,-576 2506,-582 2506,-588 2506,-588 2506,-600 2506,-600 2506,-606 2500,-612 2494,-612"/>
<text text-anchor="middle" x="2442.5" y="-597" font-family="sans" font-size="10.00">generate_species_tree</text>
<text text-anchor="middle" x="2442.5" y="-586" font-family="sans" font-size="10.00">sp_tree_index: 5</text>
</g>
<!-- 49&#45;&gt;48 -->
<g id="edge80" class="edge">
<title>49&#45;&gt;48</title>
<path fill="none" stroke="grey" stroke-width="2" d="M2436.91,-575.92C2428.03,-546.35 2412.74,-483.81 2423.5,-432 2425.38,-422.96 2428.87,-413.58 2432.59,-405.26"/>
<polygon fill="grey" stroke="grey" stroke-width="2" points="2435.82,-406.61 2436.96,-396.07 2429.5,-403.6 2435.82,-406.61"/>
</g>
<!-- 50 -->
<g id="node51" class="node">
<title>50</title>
<path fill="none" stroke="#d8bc56" stroke-width="2" stroke-dasharray="5,2" d="M2534.5,-468C2534.5,-468 2444.5,-468 2444.5,-468 2438.5,-468 2432.5,-462 2432.5,-456 2432.5,-456 2432.5,-444 2432.5,-444 2432.5,-438 2438.5,-432 2444.5,-432 2444.5,-432 2534.5,-432 2534.5,-432 2540.5,-432 2546.5,-438 2546.5,-444 2546.5,-444 2546.5,-456 2546.5,-456 2546.5,-462 2540.5,-468 2534.5,-468"/>
<text text-anchor="middle" x="2489.5" y="-447.5" font-family="sans" font-size="10.00">generate_gene_tree</text>
</g>
<!-- 49&#45;&gt;50 -->
<g id="edge82" class="edge">
<title>49&#45;&gt;50</title>
<path fill="none" stroke="grey" stroke-width="2" d="M2444.72,-575.88C2447.41,-557.67 2452.71,-528.21 2461.5,-504 2464.8,-494.9 2469.4,-485.42 2473.92,-477.03"/>
<polygon fill="grey" stroke="grey" stroke-width="2" points="2477.08,-478.55 2478.91,-468.11 2470.97,-475.13 2477.08,-478.55"/>
</g>
<!-- 51 -->
<g id="node52" class="node">
<title>51</title>
<path fill="none" stroke="#56c1d8" stroke-width="2" stroke-dasharray="5,2" d="M2574.5,-540C2574.5,-540 2482.5,-540 2482.5,-540 2476.5,-540 2470.5,-534 2470.5,-528 2470.5,-528 2470.5,-516 2470.5,-516 2470.5,-510 2476.5,-504 2482.5,-504 2482.5,-504 2574.5,-504 2574.5,-504 2580.5,-504 2586.5,-510 2586.5,-516 2586.5,-516 2586.5,-528 2586.5,-528 2586.5,-534 2580.5,-540 2574.5,-540"/>
<text text-anchor="middle" x="2528.5" y="-519.5" font-family="sans" font-size="10.00">create_transfers_file</text>
</g>
<!-- 49&#45;&gt;51 -->
<g id="edge84" class="edge">
<title>49&#45;&gt;51</title>
<path fill="none" stroke="grey" stroke-width="2" d="M2463.76,-575.7C2474.59,-566.88 2487.92,-556.03 2499.66,-546.47"/>
<polygon fill="grey" stroke="grey" stroke-width="2" points="2501.94,-549.13 2507.49,-540.1 2497.52,-543.7 2501.94,-549.13"/>
</g>
<!-- 50&#45;&gt;48 -->
<g id="edge81" class="edge">
<title>50&#45;&gt;48</title>
<path fill="none" stroke="grey" stroke-width="2" d="M2478.87,-431.7C2473.87,-423.56 2467.81,-413.69 2462.29,-404.7"/>
<polygon fill="grey" stroke="grey" stroke-width="2" points="2465.22,-402.79 2457.01,-396.1 2459.26,-406.46 2465.22,-402.79"/>
</g>
<!-- 51&#45;&gt;50 -->
<g id="edge83" class="edge">
<title>51&#45;&gt;50</title>
<path fill="none" stroke="grey" stroke-width="2" d="M2518.86,-503.7C2514.37,-495.64 2508.94,-485.89 2503.98,-476.98"/>
<polygon fill="grey" stroke="grey" stroke-width="2" points="2506.95,-475.14 2499.03,-468.1 2500.84,-478.54 2506.95,-475.14"/>
</g>
<!-- 52&#45;&gt;46 -->
<g id="edge77" class="edge">
<title>52&#45;&gt;46</title>
<path fill="none" stroke="grey" stroke-width="2" d="M2551.66,-287.9C2538.38,-256.35 2506.47,-188.16 2462.5,-144 2450.41,-131.86 2435.01,-121.37 2420.47,-113"/>
<polygon fill="grey" stroke="grey" stroke-width="2" points="2422.02,-109.85 2411.57,-108.06 2418.62,-115.97 2422.02,-109.85"/>
</g>
<!-- 52&#45;&gt;54 -->
<g id="edge87" class="edge">
<title>52&#45;&gt;54</title>
<path fill="none" stroke="grey" stroke-width="2" d="M2524.99,-287.88C2506.66,-278.51 2483.76,-266.81 2464.17,-256.8"/>
<polygon fill="grey" stroke="grey" stroke-width="2" points="2465.64,-253.62 2455.14,-252.19 2462.46,-259.86 2465.64,-253.62"/>
</g>
<!-- 53 -->
<g id="node54" class="node">
<title>53</title>
<path fill="none" stroke="#56d88a" stroke-width="2" stroke-dasharray="5,2" d="M2442,-180C2442,-180 2385,-180 2385,-180 2379,-180 2373,-174 2373,-168 2373,-168 2373,-156 2373,-156 2373,-150 2379,-144 2385,-144 2385,-144 2442,-144 2442,-144 2448,-144 2454,-150 2454,-156 2454,-156 2454,-168 2454,-168 2454,-174 2448,-180 2442,-180"/>
<text text-anchor="middle" x="2413.5" y="-159.5" font-family="sans" font-size="10.00">extract_rates</text>
</g>
<!-- 53&#45;&gt;46 -->
<g id="edge78" class="edge">
<title>53&#45;&gt;46</title>
<path fill="none" stroke="grey" stroke-width="2" d="M2403.86,-143.7C2399.37,-135.64 2393.94,-125.89 2388.98,-116.98"/>
<polygon fill="grey" stroke="grey" stroke-width="2" points="2391.95,-115.14 2384.03,-108.1 2385.84,-118.54 2391.95,-115.14"/>
</g>
<!-- 54&#45;&gt;53 -->
<g id="edge86" class="edge">
<title>54&#45;&gt;53</title>
<path fill="none" stroke="grey" stroke-width="2" d="M2419.52,-215.7C2418.64,-207.98 2417.58,-198.71 2416.6,-190.11"/>
<polygon fill="grey" stroke="grey" stroke-width="2" points="2420.07,-189.64 2415.45,-180.1 2413.11,-190.44 2420.07,-189.64"/>
</g>
<!-- 55 -->
<g id="node56" class="node">
<title>55</title>
<path fill="none" stroke="#56d8c1" stroke-width="2" stroke-dasharray="5,2" d="M2877,-108C2877,-108 2764,-108 2764,-108 2758,-108 2752,-102 2752,-96 2752,-96 2752,-84 2752,-84 2752,-78 2758,-72 2764,-72 2764,-72 2877,-72 2877,-72 2883,-72 2889,-78 2889,-84 2889,-84 2889,-96 2889,-96 2889,-102 2883,-108 2877,-108"/>
<text text-anchor="middle" x="2820.5" y="-87.5" font-family="sans" font-size="10.00">reconcile_all_gene_trees</text>
</g>
<!-- 55&#45;&gt;0 -->
<g id="edge7" class="edge">
<title>55&#45;&gt;0</title>
<path fill="none" stroke="grey" stroke-width="2" d="M2751.9,-80.9C2626,-66.04 2362.05,-34.88 2264.65,-23.38"/>
<polygon fill="grey" stroke="grey" stroke-width="2" points="2265.02,-19.9 2254.68,-22.21 2264.2,-26.86 2265.02,-19.9"/>
</g>
<!-- 56 -->
<g id="node57" class="node">
<title>56</title>
<path fill="none" stroke="#d88d56" stroke-width="2" stroke-dasharray="5,2" d="M2875,-324C2875,-324 2688,-324 2688,-324 2682,-324 2676,-318 2676,-312 2676,-312 2676,-300 2676,-300 2676,-294 2682,-288 2688,-288 2688,-288 2875,-288 2875,-288 2881,-288 2887,-294 2887,-300 2887,-300 2887,-312 2887,-312 2887,-318 2881,-324 2875,-324"/>
<text text-anchor="middle" x="2781.5" y="-303.5" font-family="sans" font-size="10.00">prepare_species_tree_for_reconciliation</text>
</g>
<!-- 56&#45;&gt;55 -->
<g id="edge89" class="edge">
<title>56&#45;&gt;55</title>
<path fill="none" stroke="grey" stroke-width="2" d="M2784.34,-287.57C2789.2,-258 2799.56,-196.11 2809.5,-144 2811.11,-135.56 2812.97,-126.39 2814.7,-118.09"/>
<polygon fill="grey" stroke="grey" stroke-width="2" points="2818.16,-118.66 2816.79,-108.16 2811.31,-117.22 2818.16,-118.66"/>
</g>
<!-- 63 -->
<g id="node64" class="node">
<title>63</title>
<path fill="none" stroke="#568ad8" stroke-width="2" stroke-dasharray="5,2" d="M2913,-252C2913,-252 2822,-252 2822,-252 2816,-252 2810,-246 2810,-240 2810,-240 2810,-228 2810,-228 2810,-222 2816,-216 2822,-216 2822,-216 2913,-216 2913,-216 2919,-216 2925,-222 2925,-228 2925,-228 2925,-240 2925,-240 2925,-246 2919,-252 2913,-252"/>
<text text-anchor="middle" x="2867.5" y="-231.5" font-family="sans" font-size="10.00">reconcile_gene_tree</text>
</g>
<!-- 56&#45;&gt;63 -->
<g id="edge101" class="edge">
<title>56&#45;&gt;63</title>
<path fill="none" stroke="grey" stroke-width="2" d="M2802.76,-287.7C2813.59,-278.88 2826.92,-268.03 2838.66,-258.47"/>
<polygon fill="grey" stroke="grey" stroke-width="2" points="2840.94,-261.13 2846.49,-252.1 2836.52,-255.7 2840.94,-261.13"/>
</g>
<!-- 57 -->
<g id="node58" class="node">
<title>57</title>
<path fill="none" stroke="#d85656" stroke-width="2" stroke-dasharray="5,2" d="M2890.5,-396C2890.5,-396 2822.5,-396 2822.5,-396 2816.5,-396 2810.5,-390 2810.5,-384 2810.5,-384 2810.5,-372 2810.5,-372 2810.5,-366 2816.5,-360 2822.5,-360 2822.5,-360 2890.5,-360 2890.5,-360 2896.5,-360 2902.5,-366 2902.5,-372 2902.5,-372 2902.5,-384 2902.5,-384 2902.5,-390 2896.5,-396 2890.5,-396"/>
<text text-anchor="middle" x="2856.5" y="-375.5" font-family="sans" font-size="10.00">sampling_trees</text>
</g>
<!-- 57&#45;&gt;56 -->
<g id="edge92" class="edge">
<title>57&#45;&gt;56</title>
<path fill="none" stroke="grey" stroke-width="2" d="M2837.96,-359.7C2828.7,-351.05 2817.34,-340.45 2807.24,-331.03"/>
<polygon fill="grey" stroke="grey" stroke-width="2" points="2809.52,-328.37 2799.83,-324.1 2804.75,-333.49 2809.52,-328.37"/>
</g>
<!-- 61 -->
<g id="node62" class="node">
<title>61</title>
<path fill="none" stroke="#88d856" stroke-width="2" stroke-dasharray="5,2" d="M3091.5,-324C3091.5,-324 2917.5,-324 2917.5,-324 2911.5,-324 2905.5,-318 2905.5,-312 2905.5,-312 2905.5,-300 2905.5,-300 2905.5,-294 2911.5,-288 2917.5,-288 2917.5,-288 3091.5,-288 3091.5,-288 3097.5,-288 3103.5,-294 3103.5,-300 3103.5,-300 3103.5,-312 3103.5,-312 3103.5,-318 3097.5,-324 3091.5,-324"/>
<text text-anchor="middle" x="3004.5" y="-303.5" font-family="sans" font-size="10.00">prepare_gene_tree_for_reconciliation</text>
</g>
<!-- 57&#45;&gt;61 -->
<g id="edge98" class="edge">
<title>57&#45;&gt;61</title>
<path fill="none" stroke="grey" stroke-width="2" d="M2892.7,-359.88C2912.76,-350.39 2937.87,-338.51 2959.21,-328.42"/>
<polygon fill="grey" stroke="grey" stroke-width="2" points="2960.87,-331.51 2968.41,-324.07 2957.88,-325.18 2960.87,-331.51"/>
</g>
<!-- 58 -->
<g id="node59" class="node">
<title>58</title>
<path fill="none" stroke="#59d856" stroke-width="2" stroke-dasharray="5,2" d="M2904,-612C2904,-612 2801,-612 2801,-612 2795,-612 2789,-606 2789,-600 2789,-600 2789,-588 2789,-588 2789,-582 2795,-576 2801,-576 2801,-576 2904,-576 2904,-576 2910,-576 2916,-582 2916,-588 2916,-588 2916,-600 2916,-600 2916,-606 2910,-612 2904,-612"/>
<text text-anchor="middle" x="2852.5" y="-597" font-family="sans" font-size="10.00">generate_species_tree</text>
<text text-anchor="middle" x="2852.5" y="-586" font-family="sans" font-size="10.00">sp_tree_index: 6</text>
</g>
<!-- 58&#45;&gt;57 -->
<g id="edge93" class="edge">
<title>58&#45;&gt;57</title>
<path fill="none" stroke="grey" stroke-width="2" d="M2846.91,-575.92C2838.03,-546.35 2822.74,-483.81 2833.5,-432 2835.38,-422.96 2838.87,-413.58 2842.59,-405.26"/>
<polygon fill="grey" stroke="grey" stroke-width="2" points="2845.82,-406.61 2846.96,-396.07 2839.5,-403.6 2845.82,-406.61"/>
</g>
<!-- 59 -->
<g id="node60" class="node">
<title>59</title>
<path fill="none" stroke="#d8bc56" stroke-width="2" stroke-dasharray="5,2" d="M2944.5,-468C2944.5,-468 2854.5,-468 2854.5,-468 2848.5,-468 2842.5,-462 2842.5,-456 2842.5,-456 2842.5,-444 2842.5,-444 2842.5,-438 2848.5,-432 2854.5,-432 2854.5,-432 2944.5,-432 2944.5,-432 2950.5,-432 2956.5,-438 2956.5,-444 2956.5,-444 2956.5,-456 2956.5,-456 2956.5,-462 2950.5,-468 2944.5,-468"/>
<text text-anchor="middle" x="2899.5" y="-447.5" font-family="sans" font-size="10.00">generate_gene_tree</text>
</g>
<!-- 58&#45;&gt;59 -->
<g id="edge95" class="edge">
<title>58&#45;&gt;59</title>
<path fill="none" stroke="grey" stroke-width="2" d="M2854.72,-575.88C2857.41,-557.67 2862.71,-528.21 2871.5,-504 2874.8,-494.9 2879.4,-485.42 2883.92,-477.03"/>
<polygon fill="grey" stroke="grey" stroke-width="2" points="2887.08,-478.55 2888.91,-468.11 2880.97,-475.13 2887.08,-478.55"/>
</g>
<!-- 60 -->
<g id="node61" class="node">
<title>60</title>
<path fill="none" stroke="#56c1d8" stroke-width="2" stroke-dasharray="5,2" d="M2984.5,-540C2984.5,-540 2892.5,-540 2892.5,-540 2886.5,-540 2880.5,-534 2880.5,-528 2880.5,-528 2880.5,-516 2880.5,-516 2880.5,-510 2886.5,-504 2892.5,-504 2892.5,-504 2984.5,-504 2984.5,-504 2990.5,-504 2996.5,-510 2996.5,-516 2996.5,-516 2996.5,-528 2996.5,-528 2996.5,-534 2990.5,-540 2984.5,-540"/>
<text text-anchor="middle" x="2938.5" y="-519.5" font-family="sans" font-size="10.00">create_transfers_file</text>
</g>
<!-- 58&#45;&gt;60 -->
<g id="edge97" class="edge">
<title>58&#45;&gt;60</title>
<path fill="none" stroke="grey" stroke-width="2" d="M2873.76,-575.7C2884.59,-566.88 2897.92,-556.03 2909.66,-546.47"/>
<polygon fill="grey" stroke="grey" stroke-width="2" points="2911.94,-549.13 2917.49,-540.1 2907.52,-543.7 2911.94,-549.13"/>
</g>
<!-- 59&#45;&gt;57 -->
<g id="edge94" class="edge">
<title>59&#45;&gt;57</title>
<path fill="none" stroke="grey" stroke-width="2" d="M2888.87,-431.7C2883.87,-423.56 2877.81,-413.69 2872.29,-404.7"/>
<polygon fill="grey" stroke="grey" stroke-width="2" points="2875.22,-402.79 2867.01,-396.1 2869.26,-406.46 2875.22,-402.79"/>
</g>
<!-- 60&#45;&gt;59 -->
<g id="edge96" class="edge">
<title>60&#45;&gt;59</title>
<path fill="none" stroke="grey" stroke-width="2" d="M2928.86,-503.7C2924.37,-495.64 2918.94,-485.89 2913.98,-476.98"/>
<polygon fill="grey" stroke="grey" stroke-width="2" points="2916.95,-475.14 2909.03,-468.1 2910.84,-478.54 2916.95,-475.14"/>
</g>
<!-- 61&#45;&gt;55 -->
<g id="edge90" class="edge">
<title>61&#45;&gt;55</title>
<path fill="none" stroke="grey" stroke-width="2" d="M2997.66,-287.9C2984.38,-256.35 2952.47,-188.16 2908.5,-144 2896.41,-131.86 2881.01,-121.37 2866.47,-113"/>
<polygon fill="grey" stroke="grey" stroke-width="2" points="2868.02,-109.85 2857.57,-108.06 2864.62,-115.97 2868.02,-109.85"/>
</g>
<!-- 61&#45;&gt;63 -->
<g id="edge100" class="edge">
<title>61&#45;&gt;63</title>
<path fill="none" stroke="grey" stroke-width="2" d="M2970.99,-287.88C2952.66,-278.51 2929.76,-266.81 2910.17,-256.8"/>
<polygon fill="grey" stroke="grey" stroke-width="2" points="2911.64,-253.62 2901.14,-252.19 2908.46,-259.86 2911.64,-253.62"/>
</g>
<!-- 62 -->
<g id="node63" class="node">
<title>62</title>
<path fill="none" stroke="#56d88a" stroke-width="2" stroke-dasharray="5,2" d="M2888,-180C2888,-180 2831,-180 2831,-180 2825,-180 2819,-174 2819,-168 2819,-168 2819,-156 2819,-156 2819,-150 2825,-144 2831,-144 2831,-144 2888,-144 2888,-144 2894,-144 2900,-150 2900,-156 2900,-156 2900,-168 2900,-168 2900,-174 2894,-180 2888,-180"/>
<text text-anchor="middle" x="2859.5" y="-159.5" font-family="sans" font-size="10.00">extract_rates</text>
</g>
<!-- 62&#45;&gt;55 -->
<g id="edge91" class="edge">
<title>62&#45;&gt;55</title>
<path fill="none" stroke="grey" stroke-width="2" d="M2849.86,-143.7C2845.37,-135.64 2839.94,-125.89 2834.98,-116.98"/>
<polygon fill="grey" stroke="grey" stroke-width="2" points="2837.95,-115.14 2830.03,-108.1 2831.84,-118.54 2837.95,-115.14"/>
</g>
<!-- 63&#45;&gt;62 -->
<g id="edge99" class="edge">
<title>63&#45;&gt;62</title>
<path fill="none" stroke="grey" stroke-width="2" d="M2865.52,-215.7C2864.64,-207.98 2863.58,-198.71 2862.6,-190.11"/>
<polygon fill="grey" stroke="grey" stroke-width="2" points="2866.07,-189.64 2861.45,-180.1 2859.11,-190.44 2866.07,-189.64"/>
</g>
<!-- 64 -->
<g id="node65" class="node">
<title>64</title>
<path fill="none" stroke="#56d8c1" stroke-width="2" stroke-dasharray="5,2" d="M3323,-108C3323,-108 3210,-108 3210,-108 3204,-108 3198,-102 3198,-96 3198,-96 3198,-84 3198,-84 3198,-78 3204,-72 3210,-72 3210,-72 3323,-72 3323,-72 3329,-72 3335,-78 3335,-84 3335,-84 3335,-96 3335,-96 3335,-102 3329,-108 3323,-108"/>
<text text-anchor="middle" x="3266.5" y="-87.5" font-family="sans" font-size="10.00">reconcile_all_gene_trees</text>
</g>
<!-- 64&#45;&gt;0 -->
<g id="edge8" class="edge">
<title>64&#45;&gt;0</title>
<path fill="none" stroke="grey" stroke-width="2" d="M3197.93,-84.38C2997.59,-70.88 2417.76,-31.82 2264.84,-21.52"/>
<polygon fill="grey" stroke="grey" stroke-width="2" points="2264.79,-18 2254.58,-20.82 2264.32,-24.99 2264.79,-18"/>
</g>
<!-- 65 -->
<g id="node66" class="node">
<title>65</title>
<path fill="none" stroke="#d88d56" stroke-width="2" stroke-dasharray="5,2" d="M3321,-324C3321,-324 3134,-324 3134,-324 3128,-324 3122,-318 3122,-312 3122,-312 3122,-300 3122,-300 3122,-294 3128,-288 3134,-288 3134,-288 3321,-288 3321,-288 3327,-288 3333,-294 3333,-300 3333,-300 3333,-312 3333,-312 3333,-318 3327,-324 3321,-324"/>
<text text-anchor="middle" x="3227.5" y="-303.5" font-family="sans" font-size="10.00">prepare_species_tree_for_reconciliation</text>
</g>
<!-- 65&#45;&gt;64 -->
<g id="edge102" class="edge">
<title>65&#45;&gt;64</title>
<path fill="none" stroke="grey" stroke-width="2" d="M3230.34,-287.57C3235.2,-258 3245.56,-196.11 3255.5,-144 3257.11,-135.56 3258.97,-126.39 3260.7,-118.09"/>
<polygon fill="grey" stroke="grey" stroke-width="2" points="3264.16,-118.66 3262.79,-108.16 3257.31,-117.22 3264.16,-118.66"/>
</g>
<!-- 72 -->
<g id="node73" class="node">
<title>72</title>
<path fill="none" stroke="#568ad8" stroke-width="2" stroke-dasharray="5,2" d="M3359,-252C3359,-252 3268,-252 3268,-252 3262,-252 3256,-246 3256,-240 3256,-240 3256,-228 3256,-228 3256,-222 3262,-216 3268,-216 3268,-216 3359,-216 3359,-216 3365,-216 3371,-222 3371,-228 3371,-228 3371,-240 3371,-240 3371,-246 3365,-252 3359,-252"/>
<text text-anchor="middle" x="3313.5" y="-231.5" font-family="sans" font-size="10.00">reconcile_gene_tree</text>
</g>
<!-- 65&#45;&gt;72 -->
<g id="edge114" class="edge">
<title>65&#45;&gt;72</title>
<path fill="none" stroke="grey" stroke-width="2" d="M3248.76,-287.7C3259.59,-278.88 3272.92,-268.03 3284.66,-258.47"/>
<polygon fill="grey" stroke="grey" stroke-width="2" points="3286.94,-261.13 3292.49,-252.1 3282.52,-255.7 3286.94,-261.13"/>
</g>
<!-- 66 -->
<g id="node67" class="node">
<title>66</title>
<path fill="none" stroke="#d85656" stroke-width="2" stroke-dasharray="5,2" d="M3372.5,-396C3372.5,-396 3304.5,-396 3304.5,-396 3298.5,-396 3292.5,-390 3292.5,-384 3292.5,-384 3292.5,-372 3292.5,-372 3292.5,-366 3298.5,-360 3304.5,-360 3304.5,-360 3372.5,-360 3372.5,-360 3378.5,-360 3384.5,-366 3384.5,-372 3384.5,-372 3384.5,-384 3384.5,-384 3384.5,-390 3378.5,-396 3372.5,-396"/>
<text text-anchor="middle" x="3338.5" y="-375.5" font-family="sans" font-size="10.00">sampling_trees</text>
</g>
<!-- 66&#45;&gt;65 -->
<g id="edge105" class="edge">
<title>66&#45;&gt;65</title>
<path fill="none" stroke="grey" stroke-width="2" d="M3311.35,-359.88C3296.97,-350.81 3279.12,-339.55 3263.59,-329.76"/>
<polygon fill="grey" stroke="grey" stroke-width="2" points="3265.08,-326.56 3254.76,-324.19 3261.35,-332.48 3265.08,-326.56"/>
</g>
<!-- 70 -->
<g id="node71" class="node">
<title>70</title>
<path fill="none" stroke="#88d856" stroke-width="2" stroke-dasharray="5,2" d="M3537.5,-324C3537.5,-324 3363.5,-324 3363.5,-324 3357.5,-324 3351.5,-318 3351.5,-312 3351.5,-312 3351.5,-300 3351.5,-300 3351.5,-294 3357.5,-288 3363.5,-288 3363.5,-288 3537.5,-288 3537.5,-288 3543.5,-288 3549.5,-294 3549.5,-300 3549.5,-300 3549.5,-312 3549.5,-312 3549.5,-318 3543.5,-324 3537.5,-324"/>
<text text-anchor="middle" x="3450.5" y="-303.5" font-family="sans" font-size="10.00">prepare_gene_tree_for_reconciliation</text>
</g>
<!-- 66&#45;&gt;70 -->
<g id="edge111" class="edge">
<title>66&#45;&gt;70</title>
<path fill="none" stroke="grey" stroke-width="2" d="M3365.9,-359.88C3380.41,-350.81 3398.42,-339.55 3414.09,-329.76"/>
<polygon fill="grey" stroke="grey" stroke-width="2" points="3416.37,-332.46 3423,-324.19 3412.66,-326.52 3416.37,-332.46"/>
</g>
<!-- 67 -->
<g id="node68" class="node">
<title>67</title>
<path fill="none" stroke="#59d856" stroke-width="2" stroke-dasharray="5,2" d="M3385,-612C3385,-612 3282,-612 3282,-612 3276,-612 3270,-606 3270,-600 3270,-600 3270,-588 3270,-588 3270,-582 3276,-576 3282,-576 3282,-576 3385,-576 3385,-576 3391,-576 3397,-582 3397,-588 3397,-588 3397,-600 3397,-600 3397,-606 3391,-612 3385,-612"/>
<text text-anchor="middle" x="3333.5" y="-597" font-family="sans" font-size="10.00">generate_species_tree</text>
<text text-anchor="middle" x="3333.5" y="-586" font-family="sans" font-size="10.00">sp_tree_index: 7</text>
</g>
<!-- 67&#45;&gt;66 -->
<g id="edge106" class="edge">
<title>67&#45;&gt;66</title>
<path fill="none" stroke="grey" stroke-width="2" d="M3327.83,-575.9C3318.82,-546.31 3303.34,-483.72 3314.5,-432 3316.46,-422.92 3320.11,-413.52 3323.99,-405.2"/>
<polygon fill="grey" stroke="grey" stroke-width="2" points="3327.23,-406.53 3328.55,-396.02 3320.96,-403.42 3327.23,-406.53"/>
</g>
<!-- 68 -->
<g id="node69" class="node">
<title>68</title>
<path fill="none" stroke="#d8bc56" stroke-width="2" stroke-dasharray="5,2" d="M3425.5,-468C3425.5,-468 3335.5,-468 3335.5,-468 3329.5,-468 3323.5,-462 3323.5,-456 3323.5,-456 3323.5,-444 3323.5,-444 3323.5,-438 3329.5,-432 3335.5,-432 3335.5,-432 3425.5,-432 3425.5,-432 3431.5,-432 3437.5,-438 3437.5,-444 3437.5,-444 3437.5,-456 3437.5,-456 3437.5,-462 3431.5,-468 3425.5,-468"/>
<text text-anchor="middle" x="3380.5" y="-447.5" font-family="sans" font-size="10.00">generate_gene_tree</text>
</g>
<!-- 67&#45;&gt;68 -->
<g id="edge108" class="edge">
<title>67&#45;&gt;68</title>
<path fill="none" stroke="grey" stroke-width="2" d="M3335.72,-575.88C3338.41,-557.67 3343.71,-528.21 3352.5,-504 3355.8,-494.9 3360.4,-485.42 3364.92,-477.03"/>
<polygon fill="grey" stroke="grey" stroke-width="2" points="3368.08,-478.55 3369.91,-468.11 3361.97,-475.13 3368.08,-478.55"/>
</g>
<!-- 69 -->
<g id="node70" class="node">
<title>69</title>
<path fill="none" stroke="#56c1d8" stroke-width="2" stroke-dasharray="5,2" d="M3465.5,-540C3465.5,-540 3373.5,-540 3373.5,-540 3367.5,-540 3361.5,-534 3361.5,-528 3361.5,-528 3361.5,-516 3361.5,-516 3361.5,-510 3367.5,-504 3373.5,-504 3373.5,-504 3465.5,-504 3465.5,-504 3471.5,-504 3477.5,-510 3477.5,-516 3477.5,-516 3477.5,-528 3477.5,-528 3477.5,-534 3471.5,-540 3465.5,-540"/>
<text text-anchor="middle" x="3419.5" y="-519.5" font-family="sans" font-size="10.00">create_transfers_file</text>
</g>
<!-- 67&#45;&gt;69 -->
<g id="edge110" class="edge">
<title>67&#45;&gt;69</title>
<path fill="none" stroke="grey" stroke-width="2" d="M3354.76,-575.7C3365.59,-566.88 3378.92,-556.03 3390.66,-546.47"/>
<polygon fill="grey" stroke="grey" stroke-width="2" points="3392.94,-549.13 3398.49,-540.1 3388.52,-543.7 3392.94,-549.13"/>
</g>
<!-- 68&#45;&gt;66 -->
<g id="edge107" class="edge">
<title>68&#45;&gt;66</title>
<path fill="none" stroke="grey" stroke-width="2" d="M3370.12,-431.7C3365.24,-423.56 3359.31,-413.69 3353.92,-404.7"/>
<polygon fill="grey" stroke="grey" stroke-width="2" points="3356.91,-402.88 3348.76,-396.1 3350.91,-406.48 3356.91,-402.88"/>
</g>
<!-- 69&#45;&gt;68 -->
<g id="edge109" class="edge">
<title>69&#45;&gt;68</title>
<path fill="none" stroke="grey" stroke-width="2" d="M3409.86,-503.7C3405.37,-495.64 3399.94,-485.89 3394.98,-476.98"/>
<polygon fill="grey" stroke="grey" stroke-width="2" points="3397.95,-475.14 3390.03,-468.1 3391.84,-478.54 3397.95,-475.14"/>
</g>
<!-- 70&#45;&gt;64 -->
<g id="edge103" class="edge">
<title>70&#45;&gt;64</title>
<path fill="none" stroke="grey" stroke-width="2" d="M3443.66,-287.9C3430.38,-256.35 3398.47,-188.16 3354.5,-144 3342.41,-131.86 3327.01,-121.37 3312.47,-113"/>
<polygon fill="grey" stroke="grey" stroke-width="2" points="3314.02,-109.85 3303.57,-108.06 3310.62,-115.97 3314.02,-109.85"/>
</g>
<!-- 70&#45;&gt;72 -->
<g id="edge113" class="edge">
<title>70&#45;&gt;72</title>
<path fill="none" stroke="grey" stroke-width="2" d="M3416.99,-287.88C3398.66,-278.51 3375.76,-266.81 3356.17,-256.8"/>
<polygon fill="grey" stroke="grey" stroke-width="2" points="3357.64,-253.62 3347.14,-252.19 3354.46,-259.86 3357.64,-253.62"/>
</g>
<!-- 71 -->
<g id="node72" class="node">
<title>71</title>
<path fill="none" stroke="#56d88a" stroke-width="2" stroke-dasharray="5,2" d="M3334,-180C3334,-180 3277,-180 3277,-180 3271,-180 3265,-174 3265,-168 3265,-168 3265,-156 3265,-156 3265,-150 3271,-144 3277,-144 3277,-144 3334,-144 3334,-144 3340,-144 3346,-150 3346,-156 3346,-156 3346,-168 3346,-168 3346,-174 3340,-180 3334,-180"/>
<text text-anchor="middle" x="3305.5" y="-159.5" font-family="sans" font-size="10.00">extract_rates</text>
</g>
<!-- 71&#45;&gt;64 -->
<g id="edge104" class="edge">
<title>71&#45;&gt;64</title>
<path fill="none" stroke="grey" stroke-width="2" d="M3295.86,-143.7C3291.37,-135.64 3285.94,-125.89 3280.98,-116.98"/>
<polygon fill="grey" stroke="grey" stroke-width="2" points="3283.95,-115.14 3276.03,-108.1 3277.84,-118.54 3283.95,-115.14"/>
</g>
<!-- 72&#45;&gt;71 -->
<g id="edge112" class="edge">
<title>72&#45;&gt;71</title>
<path fill="none" stroke="grey" stroke-width="2" d="M3311.52,-215.7C3310.64,-207.98 3309.58,-198.71 3308.6,-190.11"/>
<polygon fill="grey" stroke="grey" stroke-width="2" points="3312.07,-189.64 3307.45,-180.1 3305.11,-190.44 3312.07,-189.64"/>
</g>
<!-- 73 -->
<g id="node74" class="node">
<title>73</title>
<path fill="none" stroke="#56d8c1" stroke-width="2" stroke-dasharray="5,2" d="M3769,-108C3769,-108 3656,-108 3656,-108 3650,-108 3644,-102 3644,-96 3644,-96 3644,-84 3644,-84 3644,-78 3650,-72 3656,-72 3656,-72 3769,-72 3769,-72 3775,-72 3781,-78 3781,-84 3781,-84 3781,-96 3781,-96 3781,-102 3775,-108 3769,-108"/>
<text text-anchor="middle" x="3712.5" y="-87.5" font-family="sans" font-size="10.00">reconcile_all_gene_trees</text>
</g>
<!-- 73&#45;&gt;0 -->
<g id="edge9" class="edge">
<title>73&#45;&gt;0</title>
<path fill="none" stroke="grey" stroke-width="2" d="M3643.85,-85.76C3383.54,-73.49 2462.06,-30.06 2264.83,-20.76"/>
<polygon fill="grey" stroke="grey" stroke-width="2" points="2264.84,-17.26 2254.69,-20.28 2264.51,-24.25 2264.84,-17.26"/>
</g>
<!-- 74 -->
<g id="node75" class="node">
<title>74</title>
<path fill="none" stroke="#d88d56" stroke-width="2" stroke-dasharray="5,2" d="M3767,-324C3767,-324 3580,-324 3580,-324 3574,-324 3568,-318 3568,-312 3568,-312 3568,-300 3568,-300 3568,-294 3574,-288 3580,-288 3580,-288 3767,-288 3767,-288 3773,-288 3779,-294 3779,-300 3779,-300 3779,-312 3779,-312 3779,-318 3773,-324 3767,-324"/>
<text text-anchor="middle" x="3673.5" y="-303.5" font-family="sans" font-size="10.00">prepare_species_tree_for_reconciliation</text>
</g>
<!-- 74&#45;&gt;73 -->
<g id="edge115" class="edge">
<title>74&#45;&gt;73</title>
<path fill="none" stroke="grey" stroke-width="2" d="M3676.59,-287.6C3681.83,-258.06 3692.87,-196.23 3702.5,-144 3704.05,-135.58 3705.77,-126.42 3707.34,-118.12"/>
<polygon fill="grey" stroke="grey" stroke-width="2" points="3710.8,-118.66 3709.22,-108.18 3703.92,-117.35 3710.8,-118.66"/>
</g>
<!-- 81 -->
<g id="node82" class="node">
<title>81</title>
<path fill="none" stroke="#568ad8" stroke-width="2" stroke-dasharray="5,2" d="M3805,-252C3805,-252 3714,-252 3714,-252 3708,-252 3702,-246 3702,-240 3702,-240 3702,-228 3702,-228 3702,-222 3708,-216 3714,-216 3714,-216 3805,-216 3805,-216 3811,-216 3817,-222 3817,-228 3817,-228 3817,-240 3817,-240 3817,-246 3811,-252 3805,-252"/>
<text text-anchor="middle" x="3759.5" y="-231.5" font-family="sans" font-size="10.00">reconcile_gene_tree</text>
</g>
<!-- 74&#45;&gt;81 -->
<g id="edge127" class="edge">
<title>74&#45;&gt;81</title>
<path fill="none" stroke="grey" stroke-width="2" d="M3694.76,-287.7C3705.59,-278.88 3718.92,-268.03 3730.66,-258.47"/>
<polygon fill="grey" stroke="grey" stroke-width="2" points="3732.94,-261.13 3738.49,-252.1 3728.52,-255.7 3732.94,-261.13"/>
</g>
<!-- 75 -->
<g id="node76" class="node">
<title>75</title>
<path fill="none" stroke="#d85656" stroke-width="2" stroke-dasharray="5,2" d="M3819.5,-396C3819.5,-396 3751.5,-396 3751.5,-396 3745.5,-396 3739.5,-390 3739.5,-384 3739.5,-384 3739.5,-372 3739.5,-372 3739.5,-366 3745.5,-360 3751.5,-360 3751.5,-360 3819.5,-360 3819.5,-360 3825.5,-360 3831.5,-366 3831.5,-372 3831.5,-372 3831.5,-384 3831.5,-384 3831.5,-390 3825.5,-396 3819.5,-396"/>
<text text-anchor="middle" x="3785.5" y="-375.5" font-family="sans" font-size="10.00">sampling_trees</text>
</g>
<!-- 75&#45;&gt;74 -->
<g id="edge118" class="edge">
<title>75&#45;&gt;74</title>
<path fill="none" stroke="grey" stroke-width="2" d="M3758.1,-359.88C3743.59,-350.81 3725.58,-339.55 3709.91,-329.76"/>
<polygon fill="grey" stroke="grey" stroke-width="2" points="3711.34,-326.52 3701,-324.19 3707.63,-332.46 3711.34,-326.52"/>
</g>
<!-- 79 -->
<g id="node80" class="node">
<title>79</title>
<path fill="none" stroke="#88d856" stroke-width="2" stroke-dasharray="5,2" d="M3983.5,-324C3983.5,-324 3809.5,-324 3809.5,-324 3803.5,-324 3797.5,-318 3797.5,-312 3797.5,-312 3797.5,-300 3797.5,-300 3797.5,-294 3803.5,-288 3809.5,-288 3809.5,-288 3983.5,-288 3983.5,-288 3989.5,-288 3995.5,-294 3995.5,-300 3995.5,-300 3995.5,-312 3995.5,-312 3995.5,-318 3989.5,-324 3983.5,-324"/>
<text text-anchor="middle" x="3896.5" y="-303.5" font-family="sans" font-size="10.00">prepare_gene_tree_for_reconciliation</text>
</g>
<!-- 75&#45;&gt;79 -->
<g id="edge124" class="edge">
<title>75&#45;&gt;79</title>
<path fill="none" stroke="grey" stroke-width="2" d="M3812.65,-359.88C3827.03,-350.81 3844.88,-339.55 3860.41,-329.76"/>
<polygon fill="grey" stroke="grey" stroke-width="2" points="3862.65,-332.48 3869.24,-324.19 3858.92,-326.56 3862.65,-332.48"/>
</g>
<!-- 76 -->
<g id="node77" class="node">
<title>76</title>
<path fill="none" stroke="#59d856" stroke-width="2" stroke-dasharray="5,2" d="M3796,-612C3796,-612 3693,-612 3693,-612 3687,-612 3681,-606 3681,-600 3681,-600 3681,-588 3681,-588 3681,-582 3687,-576 3693,-576 3693,-576 3796,-576 3796,-576 3802,-576 3808,-582 3808,-588 3808,-588 3808,-600 3808,-600 3808,-606 3802,-612 3796,-612"/>
<text text-anchor="middle" x="3744.5" y="-597" font-family="sans" font-size="10.00">generate_species_tree</text>
<text text-anchor="middle" x="3744.5" y="-586" font-family="sans" font-size="10.00">sp_tree_index: 8</text>
</g>
<!-- 76&#45;&gt;75 -->
<g id="edge119" class="edge">
<title>76&#45;&gt;75</title>
<path fill="none" stroke="grey" stroke-width="2" d="M3736.78,-575.65C3724.41,-545.14 3703.63,-480.49 3725.5,-432 3730.68,-420.52 3739.71,-410.52 3749.22,-402.4"/>
<polygon fill="grey" stroke="grey" stroke-width="2" points="3751.59,-404.99 3757.24,-396.03 3747.23,-399.51 3751.59,-404.99"/>
</g>
<!-- 77 -->
<g id="node78" class="node">
<title>77</title>
<path fill="none" stroke="#d8bc56" stroke-width="2" stroke-dasharray="5,2" d="M3836.5,-468C3836.5,-468 3746.5,-468 3746.5,-468 3740.5,-468 3734.5,-462 3734.5,-456 3734.5,-456 3734.5,-444 3734.5,-444 3734.5,-438 3740.5,-432 3746.5,-432 3746.5,-432 3836.5,-432 3836.5,-432 3842.5,-432 3848.5,-438 3848.5,-444 3848.5,-444 3848.5,-456 3848.5,-456 3848.5,-462 3842.5,-468 3836.5,-468"/>
<text text-anchor="middle" x="3791.5" y="-447.5" font-family="sans" font-size="10.00">generate_gene_tree</text>
</g>
<!-- 76&#45;&gt;77 -->
<g id="edge121" class="edge">
<title>76&#45;&gt;77</title>
<path fill="none" stroke="grey" stroke-width="2" d="M3746.72,-575.88C3749.41,-557.67 3754.71,-528.21 3763.5,-504 3766.8,-494.9 3771.4,-485.42 3775.92,-477.03"/>
<polygon fill="grey" stroke="grey" stroke-width="2" points="3779.08,-478.55 3780.91,-468.11 3772.97,-475.13 3779.08,-478.55"/>
</g>
<!-- 78 -->
<g id="node79" class="node">
<title>78</title>
<path fill="none" stroke="#56c1d8" stroke-width="2" stroke-dasharray="5,2" d="M3876.5,-540C3876.5,-540 3784.5,-540 3784.5,-540 3778.5,-540 3772.5,-534 3772.5,-528 3772.5,-528 3772.5,-516 3772.5,-516 3772.5,-510 3778.5,-504 3784.5,-504 3784.5,-504 3876.5,-504 3876.5,-504 3882.5,-504 3888.5,-510 3888.5,-516 3888.5,-516 3888.5,-528 3888.5,-528 3888.5,-534 3882.5,-540 3876.5,-540"/>
<text text-anchor="middle" x="3830.5" y="-519.5" font-family="sans" font-size="10.00">create_transfers_file</text>
</g>
<!-- 76&#45;&gt;78 -->
<g id="edge123" class="edge">
<title>76&#45;&gt;78</title>
<path fill="none" stroke="grey" stroke-width="2" d="M3765.76,-575.7C3776.59,-566.88 3789.92,-556.03 3801.66,-546.47"/>
<polygon fill="grey" stroke="grey" stroke-width="2" points="3803.94,-549.13 3809.49,-540.1 3799.52,-543.7 3803.94,-549.13"/>
</g>
<!-- 77&#45;&gt;75 -->
<g id="edge120" class="edge">
<title>77&#45;&gt;75</title>
<path fill="none" stroke="grey" stroke-width="2" d="M3790.02,-431.7C3789.36,-423.98 3788.56,-414.71 3787.82,-406.11"/>
<polygon fill="grey" stroke="grey" stroke-width="2" points="3791.31,-405.77 3786.97,-396.1 3784.33,-406.37 3791.31,-405.77"/>
</g>
<!-- 78&#45;&gt;77 -->
<g id="edge122" class="edge">
<title>78&#45;&gt;77</title>
<path fill="none" stroke="grey" stroke-width="2" d="M3820.86,-503.7C3816.37,-495.64 3810.94,-485.89 3805.98,-476.98"/>
<polygon fill="grey" stroke="grey" stroke-width="2" points="3808.95,-475.14 3801.03,-468.1 3802.84,-478.54 3808.95,-475.14"/>
</g>
<!-- 79&#45;&gt;73 -->
<g id="edge116" class="edge">
<title>79&#45;&gt;73</title>
<path fill="none" stroke="grey" stroke-width="2" d="M3889.8,-287.88C3876.76,-256.28 3845.36,-188.04 3801.5,-144 3789.41,-131.87 3774,-121.42 3759.41,-113.1"/>
<polygon fill="grey" stroke="grey" stroke-width="2" points="3760.92,-109.93 3750.47,-108.19 3757.56,-116.07 3760.92,-109.93"/>
</g>
<!-- 79&#45;&gt;81 -->
<g id="edge126" class="edge">
<title>79&#45;&gt;81</title>
<path fill="none" stroke="grey" stroke-width="2" d="M3862.99,-287.88C3844.66,-278.51 3821.76,-266.81 3802.17,-256.8"/>
<polygon fill="grey" stroke="grey" stroke-width="2" points="3803.64,-253.62 3793.14,-252.19 3800.46,-259.86 3803.64,-253.62"/>
</g>
<!-- 80 -->
<g id="node81" class="node">
<title>80</title>
<path fill="none" stroke="#56d88a" stroke-width="2" stroke-dasharray="5,2" d="M3780,-180C3780,-180 3723,-180 3723,-180 3717,-180 3711,-174 3711,-168 3711,-168 3711,-156 3711,-156 3711,-150 3717,-144 3723,-144 3723,-144 3780,-144 3780,-144 3786,-144 3792,-150 3792,-156 3792,-156 3792,-168 3792,-168 3792,-174 3786,-180 3780,-180"/>
<text text-anchor="middle" x="3751.5" y="-159.5" font-family="sans" font-size="10.00">extract_rates</text>
</g>
<!-- 80&#45;&gt;73 -->
<g id="edge117" class="edge">
<title>80&#45;&gt;73</title>
<path fill="none" stroke="grey" stroke-width="2" d="M3741.86,-143.7C3737.37,-135.64 3731.94,-125.89 3726.98,-116.98"/>
<polygon fill="grey" stroke="grey" stroke-width="2" points="3729.95,-115.14 3722.03,-108.1 3723.84,-118.54 3729.95,-115.14"/>
</g>
<!-- 81&#45;&gt;80 -->
<g id="edge125" class="edge">
<title>81&#45;&gt;80</title>
<path fill="none" stroke="grey" stroke-width="2" d="M3757.52,-215.7C3756.64,-207.98 3755.58,-198.71 3754.6,-190.11"/>
<polygon fill="grey" stroke="grey" stroke-width="2" points="3758.07,-189.64 3753.45,-180.1 3751.11,-190.44 3758.07,-189.64"/>
</g>
<!-- 82 -->
<g id="node83" class="node">
<title>82</title>
<path fill="none" stroke="#56d8c1" stroke-width="2" stroke-dasharray="5,2" d="M4215,-108C4215,-108 4102,-108 4102,-108 4096,-108 4090,-102 4090,-96 4090,-96 4090,-84 4090,-84 4090,-78 4096,-72 4102,-72 4102,-72 4215,-72 4215,-72 4221,-72 4227,-78 4227,-84 4227,-84 4227,-96 4227,-96 4227,-102 4221,-108 4215,-108"/>
<text text-anchor="middle" x="4158.5" y="-87.5" font-family="sans" font-size="10.00">reconcile_all_gene_trees</text>
</g>
<!-- 82&#45;&gt;0 -->
<g id="edge10" class="edge">
<title>82&#45;&gt;0</title>
<path fill="none" stroke="grey" stroke-width="2" d="M4089.67,-85.57C4015.74,-81.94 3894.83,-76.18 3790.5,-72 3181.32,-47.6 2438.27,-25.23 2264.89,-20.1"/>
<polygon fill="grey" stroke="grey" stroke-width="2" points="2264.86,-16.6 2254.76,-19.8 2264.65,-23.59 2264.86,-16.6"/>
</g>
<!-- 83 -->
<g id="node84" class="node">
<title>83</title>
<path fill="none" stroke="#d88d56" stroke-width="2" stroke-dasharray="5,2" d="M4213,-324C4213,-324 4026,-324 4026,-324 4020,-324 4014,-318 4014,-312 4014,-312 4014,-300 4014,-300 4014,-294 4020,-288 4026,-288 4026,-288 4213,-288 4213,-288 4219,-288 4225,-294 4225,-300 4225,-300 4225,-312 4225,-312 4225,-318 4219,-324 4213,-324"/>
<text text-anchor="middle" x="4119.5" y="-303.5" font-family="sans" font-size="10.00">prepare_species_tree_for_reconciliation</text>
</g>
<!-- 83&#45;&gt;82 -->
<g id="edge128" class="edge">
<title>83&#45;&gt;82</title>
<path fill="none" stroke="grey" stroke-width="2" d="M4122.59,-287.6C4127.83,-258.06 4138.87,-196.23 4148.5,-144 4150.05,-135.58 4151.77,-126.42 4153.34,-118.12"/>
<polygon fill="grey" stroke="grey" stroke-width="2" points="4156.8,-118.66 4155.22,-108.18 4149.92,-117.35 4156.8,-118.66"/>
</g>
<!-- 90 -->
<g id="node91" class="node">
<title>90</title>
<path fill="none" stroke="#568ad8" stroke-width="2" stroke-dasharray="5,2" d="M4251,-252C4251,-252 4160,-252 4160,-252 4154,-252 4148,-246 4148,-240 4148,-240 4148,-228 4148,-228 4148,-222 4154,-216 4160,-216 4160,-216 4251,-216 4251,-216 4257,-216 4263,-222 4263,-228 4263,-228 4263,-240 4263,-240 4263,-246 4257,-252 4251,-252"/>
<text text-anchor="middle" x="4205.5" y="-231.5" font-family="sans" font-size="10.00">reconcile_gene_tree</text>
</g>
<!-- 83&#45;&gt;90 -->
<g id="edge140" class="edge">
<title>83&#45;&gt;90</title>
<path fill="none" stroke="grey" stroke-width="2" d="M4140.76,-287.7C4151.59,-278.88 4164.92,-268.03 4176.66,-258.47"/>
<polygon fill="grey" stroke="grey" stroke-width="2" points="4178.94,-261.13 4184.49,-252.1 4174.52,-255.7 4178.94,-261.13"/>
</g>
<!-- 84 -->
<g id="node85" class="node">
<title>84</title>
<path fill="none" stroke="#d85656" stroke-width="2" stroke-dasharray="5,2" d="M4264.5,-396C4264.5,-396 4196.5,-396 4196.5,-396 4190.5,-396 4184.5,-390 4184.5,-384 4184.5,-384 4184.5,-372 4184.5,-372 4184.5,-366 4190.5,-360 4196.5,-360 4196.5,-360 4264.5,-360 4264.5,-360 4270.5,-360 4276.5,-366 4276.5,-372 4276.5,-372 4276.5,-384 4276.5,-384 4276.5,-390 4270.5,-396 4264.5,-396"/>
<text text-anchor="middle" x="4230.5" y="-375.5" font-family="sans" font-size="10.00">sampling_trees</text>
</g>
<!-- 84&#45;&gt;83 -->
<g id="edge131" class="edge">
<title>84&#45;&gt;83</title>
<path fill="none" stroke="grey" stroke-width="2" d="M4203.35,-359.88C4188.97,-350.81 4171.12,-339.55 4155.59,-329.76"/>
<polygon fill="grey" stroke="grey" stroke-width="2" points="4157.08,-326.56 4146.76,-324.19 4153.35,-332.48 4157.08,-326.56"/>
</g>
<!-- 88 -->
<g id="node89" class="node">
<title>88</title>
<path fill="none" stroke="#88d856" stroke-width="2" stroke-dasharray="5,2" d="M4429.5,-324C4429.5,-324 4255.5,-324 4255.5,-324 4249.5,-324 4243.5,-318 4243.5,-312 4243.5,-312 4243.5,-300 4243.5,-300 4243.5,-294 4249.5,-288 4255.5,-288 4255.5,-288 4429.5,-288 4429.5,-288 4435.5,-288 4441.5,-294 4441.5,-300 4441.5,-300 4441.5,-312 4441.5,-312 4441.5,-318 4435.5,-324 4429.5,-324"/>
<text text-anchor="middle" x="4342.5" y="-303.5" font-family="sans" font-size="10.00">prepare_gene_tree_for_reconciliation</text>
</g>
<!-- 84&#45;&gt;88 -->
<g id="edge137" class="edge">
<title>84&#45;&gt;88</title>
<path fill="none" stroke="grey" stroke-width="2" d="M4257.9,-359.88C4272.41,-350.81 4290.42,-339.55 4306.09,-329.76"/>
<polygon fill="grey" stroke="grey" stroke-width="2" points="4308.37,-332.46 4315,-324.19 4304.66,-326.52 4308.37,-332.46"/>
</g>
<!-- 85 -->
<g id="node86" class="node">
<title>85</title>
<path fill="none" stroke="#59d856" stroke-width="2" stroke-dasharray="5,2" d="M4277,-612C4277,-612 4174,-612 4174,-612 4168,-612 4162,-606 4162,-600 4162,-600 4162,-588 4162,-588 4162,-582 4168,-576 4174,-576 4174,-576 4277,-576 4277,-576 4283,-576 4289,-582 4289,-588 4289,-588 4289,-600 4289,-600 4289,-606 4283,-612 4277,-612"/>
<text text-anchor="middle" x="4225.5" y="-597" font-family="sans" font-size="10.00">generate_species_tree</text>
<text text-anchor="middle" x="4225.5" y="-586" font-family="sans" font-size="10.00">sp_tree_index: 9</text>
</g>
<!-- 85&#45;&gt;84 -->
<g id="edge132" class="edge">
<title>85&#45;&gt;84</title>
<path fill="none" stroke="grey" stroke-width="2" d="M4219.83,-575.9C4210.82,-546.31 4195.34,-483.72 4206.5,-432 4208.46,-422.92 4212.11,-413.52 4215.99,-405.2"/>
<polygon fill="grey" stroke="grey" stroke-width="2" points="4219.23,-406.53 4220.55,-396.02 4212.96,-403.42 4219.23,-406.53"/>
</g>
<!-- 86 -->
<g id="node87" class="node">
<title>86</title>
<path fill="none" stroke="#d8bc56" stroke-width="2" stroke-dasharray="5,2" d="M4317.5,-468C4317.5,-468 4227.5,-468 4227.5,-468 4221.5,-468 4215.5,-462 4215.5,-456 4215.5,-456 4215.5,-444 4215.5,-444 4215.5,-438 4221.5,-432 4227.5,-432 4227.5,-432 4317.5,-432 4317.5,-432 4323.5,-432 4329.5,-438 4329.5,-444 4329.5,-444 4329.5,-456 4329.5,-456 4329.5,-462 4323.5,-468 4317.5,-468"/>
<text text-anchor="middle" x="4272.5" y="-447.5" font-family="sans" font-size="10.00">generate_gene_tree</text>
</g>
<!-- 85&#45;&gt;86 -->
<g id="edge134" class="edge">
<title>85&#45;&gt;86</title>
<path fill="none" stroke="grey" stroke-width="2" d="M4227.72,-575.88C4230.41,-557.67 4235.71,-528.21 4244.5,-504 4247.8,-494.9 4252.4,-485.42 4256.92,-477.03"/>
<polygon fill="grey" stroke="grey" stroke-width="2" points="4260.08,-478.55 4261.91,-468.11 4253.97,-475.13 4260.08,-478.55"/>
</g>
<!-- 87 -->
<g id="node88" class="node">
<title>87</title>
<path fill="none" stroke="#56c1d8" stroke-width="2" stroke-dasharray="5,2" d="M4357.5,-540C4357.5,-540 4265.5,-540 4265.5,-540 4259.5,-540 4253.5,-534 4253.5,-528 4253.5,-528 4253.5,-516 4253.5,-516 4253.5,-510 4259.5,-504 4265.5,-504 4265.5,-504 4357.5,-504 4357.5,-504 4363.5,-504 4369.5,-510 4369.5,-516 4369.5,-516 4369.5,-528 4369.5,-528 4369.5,-534 4363.5,-540 4357.5,-540"/>
<text text-anchor="middle" x="4311.5" y="-519.5" font-family="sans" font-size="10.00">create_transfers_file</text>
</g>
<!-- 85&#45;&gt;87 -->
<g id="edge136" class="edge">
<title>85&#45;&gt;87</title>
<path fill="none" stroke="grey" stroke-width="2" d="M4246.76,-575.7C4257.59,-566.88 4270.92,-556.03 4282.66,-546.47"/>
<polygon fill="grey" stroke="grey" stroke-width="2" points="4284.94,-549.13 4290.49,-540.1 4280.52,-543.7 4284.94,-549.13"/>
</g>
<!-- 86&#45;&gt;84 -->
<g id="edge133" class="edge">
<title>86&#45;&gt;84</title>
<path fill="none" stroke="grey" stroke-width="2" d="M4262.12,-431.7C4257.24,-423.56 4251.31,-413.69 4245.92,-404.7"/>
<polygon fill="grey" stroke="grey" stroke-width="2" points="4248.91,-402.88 4240.76,-396.1 4242.91,-406.48 4248.91,-402.88"/>
</g>
<!-- 87&#45;&gt;86 -->
<g id="edge135" class="edge">
<title>87&#45;&gt;86</title>
<path fill="none" stroke="grey" stroke-width="2" d="M4301.86,-503.7C4297.37,-495.64 4291.94,-485.89 4286.98,-476.98"/>
<polygon fill="grey" stroke="grey" stroke-width="2" points="4289.95,-475.14 4282.03,-468.1 4283.84,-478.54 4289.95,-475.14"/>
</g>
<!-- 88&#45;&gt;82 -->
<g id="edge129" class="edge">
<title>88&#45;&gt;82</title>
<path fill="none" stroke="grey" stroke-width="2" d="M4335.8,-287.88C4322.76,-256.28 4291.36,-188.04 4247.5,-144 4235.41,-131.87 4220,-121.42 4205.41,-113.1"/>
<polygon fill="grey" stroke="grey" stroke-width="2" points="4206.92,-109.93 4196.47,-108.19 4203.56,-116.07 4206.92,-109.93"/>
</g>
<!-- 88&#45;&gt;90 -->
<g id="edge139" class="edge">
<title>88&#45;&gt;90</title>
<path fill="none" stroke="grey" stroke-width="2" d="M4308.99,-287.88C4290.66,-278.51 4267.76,-266.81 4248.17,-256.8"/>
<polygon fill="grey" stroke="grey" stroke-width="2" points="4249.64,-253.62 4239.14,-252.19 4246.46,-259.86 4249.64,-253.62"/>
</g>
<!-- 89 -->
<g id="node90" class="node">
<title>89</title>
<path fill="none" stroke="#56d88a" stroke-width="2" stroke-dasharray="5,2" d="M4226,-180C4226,-180 4169,-180 4169,-180 4163,-180 4157,-174 4157,-168 4157,-168 4157,-156 4157,-156 4157,-150 4163,-144 4169,-144 4169,-144 4226,-144 4226,-144 4232,-144 4238,-150 4238,-156 4238,-156 4238,-168 4238,-168 4238,-174 4232,-180 4226,-180"/>
<text text-anchor="middle" x="4197.5" y="-159.5" font-family="sans" font-size="10.00">extract_rates</text>
</g>
<!-- 89&#45;&gt;82 -->
<g id="edge130" class="edge">
<title>89&#45;&gt;82</title>
<path fill="none" stroke="grey" stroke-width="2" d="M4187.86,-143.7C4183.37,-135.64 4177.94,-125.89 4172.98,-116.98"/>
<polygon fill="grey" stroke="grey" stroke-width="2" points="4175.95,-115.14 4168.03,-108.1 4169.84,-118.54 4175.95,-115.14"/>
</g>
<!-- 90&#45;&gt;89 -->
<g id="edge138" class="edge">
<title>90&#45;&gt;89</title>
<path fill="none" stroke="grey" stroke-width="2" d="M4203.52,-215.7C4202.64,-207.98 4201.58,-198.71 4200.6,-190.11"/>
<polygon fill="grey" stroke="grey" stroke-width="2" points="4204.07,-189.64 4199.45,-180.1 4197.11,-190.44 4204.07,-189.64"/>
</g>
</g>
</svg>
