<?xml version="1.0" encoding="UTF-8" standalone="no"?>
<!DOCTYPE svg PUBLIC "-//W3C//DTD SVG 1.1//EN"
 "http://www.w3.org/Graphics/SVG/1.1/DTD/svg11.dtd">
<!-- Generated by graphviz version 2.43.0 (0)
 -->
<!-- Title: snakemake_dag Pages: 1 -->
<svg width="882pt" height="620pt"
 viewBox="0.00 0.00 881.50 620.00" xmlns="http://www.w3.org/2000/svg" xmlns:xlink="http://www.w3.org/1999/xlink">
<g id="graph0" class="graph" transform="scale(1 1) rotate(0) translate(4 616)">
<title>snakemake_dag</title>
<polygon fill="white" stroke="transparent" points="-4,4 -4,-616 877.5,-616 877.5,4 -4,4"/>
<!-- 0 -->
<g id="node1" class="node">
<title>0</title>
<path fill="none" stroke="#bed856" stroke-width="2" d="M415.5,-36C415.5,-36 385.5,-36 385.5,-36 379.5,-36 373.5,-30 373.5,-24 373.5,-24 373.5,-12 373.5,-12 373.5,-6 379.5,0 385.5,0 385.5,0 415.5,0 415.5,0 421.5,0 427.5,-6 427.5,-12 427.5,-12 427.5,-24 427.5,-24 427.5,-30 421.5,-36 415.5,-36"/>
<text text-anchor="middle" x="400.5" y="-15.5" font-family="sans" font-size="10.00">all</text>
</g>
<!-- 1 -->
<g id="node2" class="node">
<title>1</title>
<path fill="none" stroke="#d8bc56" stroke-width="2" d="M346,-108C346,-108 233,-108 233,-108 227,-108 221,-102 221,-96 221,-96 221,-84 221,-84 221,-78 227,-72 233,-72 233,-72 346,-72 346,-72 352,-72 358,-78 358,-84 358,-84 358,-96 358,-96 358,-102 352,-108 346,-108"/>
<text text-anchor="middle" x="289.5" y="-87.5" font-family="sans" font-size="10.00">reconcile_all_gene_trees</text>
</g>
<!-- 1&#45;&gt;0 -->
<g id="edge1" class="edge">
<title>1&#45;&gt;0</title>
<path fill="none" stroke="grey" stroke-width="2" d="M316.65,-71.88C331.03,-62.81 348.88,-51.55 364.41,-41.76"/>
<polygon fill="grey" stroke="grey" stroke-width="2" points="366.65,-44.48 373.24,-36.19 362.92,-38.56 366.65,-44.48"/>
</g>
<!-- 2 -->
<g id="node3" class="node">
<title>2</title>
<path fill="none" stroke="#d88d56" stroke-width="2" d="M199,-324C199,-324 12,-324 12,-324 6,-324 0,-318 0,-312 0,-312 0,-300 0,-300 0,-294 6,-288 12,-288 12,-288 199,-288 199,-288 205,-288 211,-294 211,-300 211,-300 211,-312 211,-312 211,-318 205,-324 199,-324"/>
<text text-anchor="middle" x="105.5" y="-303.5" font-family="sans" font-size="10.00">prepare_species_tree_for_reconciliation</text>
</g>
<!-- 2&#45;&gt;1 -->
<g id="edge3" class="edge">
<title>2&#45;&gt;1</title>
<path fill="none" stroke="grey" stroke-width="2" d="M112.2,-287.88C125.24,-256.28 156.64,-188.04 200.5,-144 212.59,-131.87 228,-121.42 242.59,-113.1"/>
<polygon fill="grey" stroke="grey" stroke-width="2" points="244.44,-116.07 251.53,-108.19 241.08,-109.93 244.44,-116.07"/>
</g>
<!-- 9 -->
<g id="node10" class="node">
<title>9</title>
<path fill="none" stroke="#56c1d8" stroke-width="2" d="M288,-252C288,-252 197,-252 197,-252 191,-252 185,-246 185,-240 185,-240 185,-228 185,-228 185,-222 191,-216 197,-216 197,-216 288,-216 288,-216 294,-216 300,-222 300,-228 300,-228 300,-240 300,-240 300,-246 294,-252 288,-252"/>
<text text-anchor="middle" x="242.5" y="-231.5" font-family="sans" font-size="10.00">reconcile_gene_tree</text>
</g>
<!-- 2&#45;&gt;9 -->
<g id="edge15" class="edge">
<title>2&#45;&gt;9</title>
<path fill="none" stroke="grey" stroke-width="2" d="M139.01,-287.88C157.34,-278.51 180.24,-266.81 199.83,-256.8"/>
<polygon fill="grey" stroke="grey" stroke-width="2" points="201.54,-259.86 208.86,-252.19 198.36,-253.62 201.54,-259.86"/>
</g>
<!-- 3 -->
<g id="node4" class="node">
<title>3</title>
<path fill="none" stroke="#d85656" stroke-width="2" d="M251.5,-396C251.5,-396 183.5,-396 183.5,-396 177.5,-396 171.5,-390 171.5,-384 171.5,-384 171.5,-372 171.5,-372 171.5,-366 177.5,-360 183.5,-360 183.5,-360 251.5,-360 251.5,-360 257.5,-360 263.5,-366 263.5,-372 263.5,-372 263.5,-384 263.5,-384 263.5,-390 257.5,-396 251.5,-396"/>
<text text-anchor="middle" x="217.5" y="-375.5" font-family="sans" font-size="10.00">sampling_trees</text>
</g>
<!-- 3&#45;&gt;2 -->
<g id="edge6" class="edge">
<title>3&#45;&gt;2</title>
<path fill="none" stroke="grey" stroke-width="2" d="M190.1,-359.88C175.59,-350.81 157.58,-339.55 141.91,-329.76"/>
<polygon fill="grey" stroke="grey" stroke-width="2" points="143.34,-326.52 133,-324.19 139.63,-332.46 143.34,-326.52"/>
</g>
<!-- 7 -->
<g id="node8" class="node">
<title>7</title>
<path fill="none" stroke="#56d88a" stroke-width="2" d="M415.5,-324C415.5,-324 241.5,-324 241.5,-324 235.5,-324 229.5,-318 229.5,-312 229.5,-312 229.5,-300 229.5,-300 229.5,-294 235.5,-288 241.5,-288 241.5,-288 415.5,-288 415.5,-288 421.5,-288 427.5,-294 427.5,-300 427.5,-300 427.5,-312 427.5,-312 427.5,-318 421.5,-324 415.5,-324"/>
<text text-anchor="middle" x="328.5" y="-303.5" font-family="sans" font-size="10.00">prepare_gene_tree_for_reconciliation</text>
</g>
<!-- 3&#45;&gt;7 -->
<g id="edge12" class="edge">
<title>3&#45;&gt;7</title>
<path fill="none" stroke="grey" stroke-width="2" d="M244.65,-359.88C259.03,-350.81 276.88,-339.55 292.41,-329.76"/>
<polygon fill="grey" stroke="grey" stroke-width="2" points="294.65,-332.48 301.24,-324.19 290.92,-326.56 294.65,-332.48"/>
</g>
<!-- 4 -->
<g id="node5" class="node">
<title>4</title>
<path fill="none" stroke="#88d856" stroke-width="2" d="M265,-612C265,-612 162,-612 162,-612 156,-612 150,-606 150,-600 150,-600 150,-588 150,-588 150,-582 156,-576 162,-576 162,-576 265,-576 265,-576 271,-576 277,-582 277,-588 277,-588 277,-600 277,-600 277,-606 271,-612 265,-612"/>
<text text-anchor="middle" x="213.5" y="-597" font-family="sans" font-size="10.00">generate_species_tree</text>
<text text-anchor="middle" x="213.5" y="-586" font-family="sans" font-size="10.00">sp_tree_index: 0</text>
</g>
<!-- 4&#45;&gt;3 -->
<g id="edge7" class="edge">
<title>4&#45;&gt;3</title>
<path fill="none" stroke="grey" stroke-width="2" d="M207.91,-575.92C199.03,-546.35 183.74,-483.81 194.5,-432 196.38,-422.96 199.87,-413.58 203.59,-405.26"/>
<polygon fill="grey" stroke="grey" stroke-width="2" points="206.82,-406.61 207.96,-396.07 200.5,-403.6 206.82,-406.61"/>
</g>
<!-- 5 -->
<g id="node6" class="node">
<title>5</title>
<path fill="none" stroke="#59d856" stroke-width="2" d="M305.5,-468C305.5,-468 215.5,-468 215.5,-468 209.5,-468 203.5,-462 203.5,-456 203.5,-456 203.5,-444 203.5,-444 203.5,-438 209.5,-432 215.5,-432 215.5,-432 305.5,-432 305.5,-432 311.5,-432 317.5,-438 317.5,-444 317.5,-444 317.5,-456 317.5,-456 317.5,-462 311.5,-468 305.5,-468"/>
<text text-anchor="middle" x="260.5" y="-447.5" font-family="sans" font-size="10.00">generate_gene_tree</text>
</g>
<!-- 4&#45;&gt;5 -->
<g id="edge9" class="edge">
<title>4&#45;&gt;5</title>
<path fill="none" stroke="grey" stroke-width="2" d="M215.72,-575.88C218.41,-557.67 223.71,-528.21 232.5,-504 235.8,-494.9 240.4,-485.42 244.92,-477.03"/>
<polygon fill="grey" stroke="grey" stroke-width="2" points="248.08,-478.55 249.91,-468.11 241.97,-475.13 248.08,-478.55"/>
</g>
<!-- 6 -->
<g id="node7" class="node">
<title>6</title>
<path fill="none" stroke="#568ad8" stroke-width="2" d="M345.5,-540C345.5,-540 253.5,-540 253.5,-540 247.5,-540 241.5,-534 241.5,-528 241.5,-528 241.5,-516 241.5,-516 241.5,-510 247.5,-504 253.5,-504 253.5,-504 345.5,-504 345.5,-504 351.5,-504 357.5,-510 357.5,-516 357.5,-516 357.5,-528 357.5,-528 357.5,-534 351.5,-540 345.5,-540"/>
<text text-anchor="middle" x="299.5" y="-519.5" font-family="sans" font-size="10.00">create_transfers_file</text>
</g>
<!-- 4&#45;&gt;6 -->
<g id="edge11" class="edge">
<title>4&#45;&gt;6</title>
<path fill="none" stroke="grey" stroke-width="2" d="M234.76,-575.7C245.59,-566.88 258.92,-556.03 270.66,-546.47"/>
<polygon fill="grey" stroke="grey" stroke-width="2" points="272.94,-549.13 278.49,-540.1 268.52,-543.7 272.94,-549.13"/>
</g>
<!-- 5&#45;&gt;3 -->
<g id="edge8" class="edge">
<title>5&#45;&gt;3</title>
<path fill="none" stroke="grey" stroke-width="2" d="M249.87,-431.7C244.87,-423.56 238.81,-413.69 233.29,-404.7"/>
<polygon fill="grey" stroke="grey" stroke-width="2" points="236.22,-402.79 228.01,-396.1 230.26,-406.46 236.22,-402.79"/>
</g>
<!-- 6&#45;&gt;5 -->
<g id="edge10" class="edge">
<title>6&#45;&gt;5</title>
<path fill="none" stroke="grey" stroke-width="2" d="M289.86,-503.7C285.37,-495.64 279.94,-485.89 274.98,-476.98"/>
<polygon fill="grey" stroke="grey" stroke-width="2" points="277.95,-475.14 270.03,-468.1 271.84,-478.54 277.95,-475.14"/>
</g>
<!-- 7&#45;&gt;1 -->
<g id="edge4" class="edge">
<title>7&#45;&gt;1</title>
<path fill="none" stroke="grey" stroke-width="2" d="M325.41,-287.6C320.17,-258.06 309.13,-196.23 299.5,-144 297.95,-135.58 296.23,-126.42 294.66,-118.12"/>
<polygon fill="grey" stroke="grey" stroke-width="2" points="298.08,-117.35 292.78,-108.18 291.2,-118.66 298.08,-117.35"/>
</g>
<!-- 7&#45;&gt;9 -->
<g id="edge14" class="edge">
<title>7&#45;&gt;9</title>
<path fill="none" stroke="grey" stroke-width="2" d="M307.24,-287.7C296.41,-278.88 283.08,-268.03 271.34,-258.47"/>
<polygon fill="grey" stroke="grey" stroke-width="2" points="273.48,-255.7 263.51,-252.1 269.06,-261.13 273.48,-255.7"/>
</g>
<!-- 8 -->
<g id="node9" class="node">
<title>8</title>
<path fill="none" stroke="#56d8c1" stroke-width="2" d="M279,-180C279,-180 222,-180 222,-180 216,-180 210,-174 210,-168 210,-168 210,-156 210,-156 210,-150 216,-144 222,-144 222,-144 279,-144 279,-144 285,-144 291,-150 291,-156 291,-156 291,-168 291,-168 291,-174 285,-180 279,-180"/>
<text text-anchor="middle" x="250.5" y="-159.5" font-family="sans" font-size="10.00">extract_rates</text>
</g>
<!-- 8&#45;&gt;1 -->
<g id="edge5" class="edge">
<title>8&#45;&gt;1</title>
<path fill="none" stroke="grey" stroke-width="2" d="M260.14,-143.7C264.63,-135.64 270.06,-125.89 275.02,-116.98"/>
<polygon fill="grey" stroke="grey" stroke-width="2" points="278.16,-118.54 279.97,-108.1 272.05,-115.14 278.16,-118.54"/>
</g>
<!-- 9&#45;&gt;8 -->
<g id="edge13" class="edge">
<title>9&#45;&gt;8</title>
<path fill="none" stroke="grey" stroke-width="2" d="M244.48,-215.7C245.36,-207.98 246.42,-198.71 247.4,-190.11"/>
<polygon fill="grey" stroke="grey" stroke-width="2" points="250.89,-190.44 248.55,-180.1 243.93,-189.64 250.89,-190.44"/>
</g>
<!-- 10 -->
<g id="node11" class="node">
<title>10</title>
<path fill="none" stroke="#d8bc56" stroke-width="2" d="M647,-108C647,-108 534,-108 534,-108 528,-108 522,-102 522,-96 522,-96 522,-84 522,-84 522,-78 528,-72 534,-72 534,-72 647,-72 647,-72 653,-72 659,-78 659,-84 659,-84 659,-96 659,-96 659,-102 653,-108 647,-108"/>
<text text-anchor="middle" x="590.5" y="-87.5" font-family="sans" font-size="10.00">reconcile_all_gene_trees</text>
</g>
<!-- 10&#45;&gt;0 -->
<g id="edge2" class="edge">
<title>10&#45;&gt;0</title>
<path fill="none" stroke="grey" stroke-width="2" d="M544.02,-71.88C511.11,-59.75 467.58,-43.71 437.12,-32.49"/>
<polygon fill="grey" stroke="grey" stroke-width="2" points="438.31,-29.2 427.72,-29.03 435.89,-35.77 438.31,-29.2"/>
</g>
<!-- 11 -->
<g id="node12" class="node">
<title>11</title>
<path fill="none" stroke="#d88d56" stroke-width="2" d="M645,-324C645,-324 458,-324 458,-324 452,-324 446,-318 446,-312 446,-312 446,-300 446,-300 446,-294 452,-288 458,-288 458,-288 645,-288 645,-288 651,-288 657,-294 657,-300 657,-300 657,-312 657,-312 657,-318 651,-324 645,-324"/>
<text text-anchor="middle" x="551.5" y="-303.5" font-family="sans" font-size="10.00">prepare_species_tree_for_reconciliation</text>
</g>
<!-- 11&#45;&gt;10 -->
<g id="edge16" class="edge">
<title>11&#45;&gt;10</title>
<path fill="none" stroke="grey" stroke-width="2" d="M554.59,-287.6C559.83,-258.06 570.87,-196.23 580.5,-144 582.05,-135.58 583.77,-126.42 585.34,-118.12"/>
<polygon fill="grey" stroke="grey" stroke-width="2" points="588.8,-118.66 587.22,-108.18 581.92,-117.35 588.8,-118.66"/>
</g>
<!-- 18 -->
<g id="node19" class="node">
<title>18</title>
<path fill="none" stroke="#56c1d8" stroke-width="2" d="M683,-252C683,-252 592,-252 592,-252 586,-252 580,-246 580,-240 580,-240 580,-228 580,-228 580,-222 586,-216 592,-216 592,-216 683,-216 683,-216 689,-216 695,-222 695,-228 695,-228 695,-240 695,-240 695,-246 689,-252 683,-252"/>
<text text-anchor="middle" x="637.5" y="-231.5" font-family="sans" font-size="10.00">reconcile_gene_tree</text>
</g>
<!-- 11&#45;&gt;18 -->
<g id="edge28" class="edge">
<title>11&#45;&gt;18</title>
<path fill="none" stroke="grey" stroke-width="2" d="M572.76,-287.7C583.59,-278.88 596.92,-268.03 608.66,-258.47"/>
<polygon fill="grey" stroke="grey" stroke-width="2" points="610.94,-261.13 616.49,-252.1 606.52,-255.7 610.94,-261.13"/>
</g>
<!-- 12 -->
<g id="node13" class="node">
<title>12</title>
<path fill="none" stroke="#d85656" stroke-width="2" d="M696.5,-396C696.5,-396 628.5,-396 628.5,-396 622.5,-396 616.5,-390 616.5,-384 616.5,-384 616.5,-372 616.5,-372 616.5,-366 622.5,-360 628.5,-360 628.5,-360 696.5,-360 696.5,-360 702.5,-360 708.5,-366 708.5,-372 708.5,-372 708.5,-384 708.5,-384 708.5,-390 702.5,-396 696.5,-396"/>
<text text-anchor="middle" x="662.5" y="-375.5" font-family="sans" font-size="10.00">sampling_trees</text>
</g>
<!-- 12&#45;&gt;11 -->
<g id="edge19" class="edge">
<title>12&#45;&gt;11</title>
<path fill="none" stroke="grey" stroke-width="2" d="M635.35,-359.88C620.97,-350.81 603.12,-339.55 587.59,-329.76"/>
<polygon fill="grey" stroke="grey" stroke-width="2" points="589.08,-326.56 578.76,-324.19 585.35,-332.48 589.08,-326.56"/>
</g>
<!-- 16 -->
<g id="node17" class="node">
<title>16</title>
<path fill="none" stroke="#56d88a" stroke-width="2" d="M861.5,-324C861.5,-324 687.5,-324 687.5,-324 681.5,-324 675.5,-318 675.5,-312 675.5,-312 675.5,-300 675.5,-300 675.5,-294 681.5,-288 687.5,-288 687.5,-288 861.5,-288 861.5,-288 867.5,-288 873.5,-294 873.5,-300 873.5,-300 873.5,-312 873.5,-312 873.5,-318 867.5,-324 861.5,-324"/>
<text text-anchor="middle" x="774.5" y="-303.5" font-family="sans" font-size="10.00">prepare_gene_tree_for_reconciliation</text>
</g>
<!-- 12&#45;&gt;16 -->
<g id="edge25" class="edge">
<title>12&#45;&gt;16</title>
<path fill="none" stroke="grey" stroke-width="2" d="M689.9,-359.88C704.41,-350.81 722.42,-339.55 738.09,-329.76"/>
<polygon fill="grey" stroke="grey" stroke-width="2" points="740.37,-332.46 747,-324.19 736.66,-326.52 740.37,-332.46"/>
</g>
<!-- 13 -->
<g id="node14" class="node">
<title>13</title>
<path fill="none" stroke="#88d856" stroke-width="2" d="M710,-612C710,-612 607,-612 607,-612 601,-612 595,-606 595,-600 595,-600 595,-588 595,-588 595,-582 601,-576 607,-576 607,-576 710,-576 710,-576 716,-576 722,-582 722,-588 722,-588 722,-600 722,-600 722,-606 716,-612 710,-612"/>
<text text-anchor="middle" x="658.5" y="-597" font-family="sans" font-size="10.00">generate_species_tree</text>
<text text-anchor="middle" x="658.5" y="-586" font-family="sans" font-size="10.00">sp_tree_index: 1</text>
</g>
<!-- 13&#45;&gt;12 -->
<g id="edge20" class="edge">
<title>13&#45;&gt;12</title>
<path fill="none" stroke="grey" stroke-width="2" d="M652.91,-575.92C644.03,-546.35 628.74,-483.81 639.5,-432 641.38,-422.96 644.87,-413.58 648.59,-405.26"/>
<polygon fill="grey" stroke="grey" stroke-width="2" points="651.82,-406.61 652.96,-396.07 645.5,-403.6 651.82,-406.61"/>
</g>
<!-- 14 -->
<g id="node15" class="node">
<title>14</title>
<path fill="none" stroke="#59d856" stroke-width="2" d="M750.5,-468C750.5,-468 660.5,-468 660.5,-468 654.5,-468 648.5,-462 648.5,-456 648.5,-456 648.5,-444 648.5,-444 648.5,-438 654.5,-432 660.5,-432 660.5,-432 750.5,-432 750.5,-432 756.5,-432 762.5,-438 762.5,-444 762.5,-444 762.5,-456 762.5,-456 762.5,-462 756.5,-468 750.5,-468"/>
<text text-anchor="middle" x="705.5" y="-447.5" font-family="sans" font-size="10.00">generate_gene_tree</text>
</g>
<!-- 13&#45;&gt;14 -->
<g id="edge22" class="edge">
<title>13&#45;&gt;14</title>
<path fill="none" stroke="grey" stroke-width="2" d="M660.72,-575.88C663.41,-557.67 668.71,-528.21 677.5,-504 680.8,-494.9 685.4,-485.42 689.92,-477.03"/>
<polygon fill="grey" stroke="grey" stroke-width="2" points="693.08,-478.55 694.91,-468.11 686.97,-475.13 693.08,-478.55"/>
</g>
<!-- 15 -->
<g id="node16" class="node">
<title>15</title>
<path fill="none" stroke="#568ad8" stroke-width="2" d="M790.5,-540C790.5,-540 698.5,-540 698.5,-540 692.5,-540 686.5,-534 686.5,-528 686.5,-528 686.5,-516 686.5,-516 686.5,-510 692.5,-504 698.5,-504 698.5,-504 790.5,-504 790.5,-504 796.5,-504 802.5,-510 802.5,-516 802.5,-516 802.5,-528 802.5,-528 802.5,-534 796.5,-540 790.5,-540"/>
<text text-anchor="middle" x="744.5" y="-519.5" font-family="sans" font-size="10.00">create_transfers_file</text>
</g>
<!-- 13&#45;&gt;15 -->
<g id="edge24" class="edge">
<title>13&#45;&gt;15</title>
<path fill="none" stroke="grey" stroke-width="2" d="M679.76,-575.7C690.59,-566.88 703.92,-556.03 715.66,-546.47"/>
<polygon fill="grey" stroke="grey" stroke-width="2" points="717.94,-549.13 723.49,-540.1 713.52,-543.7 717.94,-549.13"/>
</g>
<!-- 14&#45;&gt;12 -->
<g id="edge21" class="edge">
<title>14&#45;&gt;12</title>
<path fill="none" stroke="grey" stroke-width="2" d="M694.87,-431.7C689.87,-423.56 683.81,-413.69 678.29,-404.7"/>
<polygon fill="grey" stroke="grey" stroke-width="2" points="681.22,-402.79 673.01,-396.1 675.26,-406.46 681.22,-402.79"/>
</g>
<!-- 15&#45;&gt;14 -->
<g id="edge23" class="edge">
<title>15&#45;&gt;14</title>
<path fill="none" stroke="grey" stroke-width="2" d="M734.86,-503.7C730.37,-495.64 724.94,-485.89 719.98,-476.98"/>
<polygon fill="grey" stroke="grey" stroke-width="2" points="722.95,-475.14 715.03,-468.1 716.84,-478.54 722.95,-475.14"/>
</g>
<!-- 16&#45;&gt;10 -->
<g id="edge17" class="edge">
<title>16&#45;&gt;10</title>
<path fill="none" stroke="grey" stroke-width="2" d="M767.8,-287.88C754.76,-256.28 723.36,-188.04 679.5,-144 667.41,-131.87 652,-121.42 637.41,-113.1"/>
<polygon fill="grey" stroke="grey" stroke-width="2" points="638.92,-109.93 628.47,-108.19 635.56,-116.07 638.92,-109.93"/>
</g>
<!-- 16&#45;&gt;18 -->
<g id="edge27" class="edge">
<title>16&#45;&gt;18</title>
<path fill="none" stroke="grey" stroke-width="2" d="M740.99,-287.88C722.66,-278.51 699.76,-266.81 680.17,-256.8"/>
<polygon fill="grey" stroke="grey" stroke-width="2" points="681.64,-253.62 671.14,-252.19 678.46,-259.86 681.64,-253.62"/>
</g>
<!-- 17 -->
<g id="node18" class="node">
<title>17</title>
<path fill="none" stroke="#56d8c1" stroke-width="2" d="M658,-180C658,-180 601,-180 601,-180 595,-180 589,-174 589,-168 589,-168 589,-156 589,-156 589,-150 595,-144 601,-144 601,-144 658,-144 658,-144 664,-144 670,-150 670,-156 670,-156 670,-168 670,-168 670,-174 664,-180 658,-180"/>
<text text-anchor="middle" x="629.5" y="-159.5" font-family="sans" font-size="10.00">extract_rates</text>
</g>
<!-- 17&#45;&gt;10 -->
<g id="edge18" class="edge">
<title>17&#45;&gt;10</title>
<path fill="none" stroke="grey" stroke-width="2" d="M619.86,-143.7C615.37,-135.64 609.94,-125.89 604.98,-116.98"/>
<polygon fill="grey" stroke="grey" stroke-width="2" points="607.95,-115.14 600.03,-108.1 601.84,-118.54 607.95,-115.14"/>
</g>
<!-- 18&#45;&gt;17 -->
<g id="edge26" class="edge">
<title>18&#45;&gt;17</title>
<path fill="none" stroke="grey" stroke-width="2" d="M635.52,-215.7C634.64,-207.98 633.58,-198.71 632.6,-190.11"/>
<polygon fill="grey" stroke="grey" stroke-width="2" points="636.07,-189.64 631.45,-180.1 629.11,-190.44 636.07,-189.64"/>
</g>
</g>
</svg>
